<svg width="200" height="200" viewBox="0 0 200 200" fill="none" xmlns="http://www.w3.org/2000/svg">
<path d="M99.3966 154.925C129.787 154.925 154.423 130.304 154.423 99.9331C154.423 69.5618 129.787 44.9409 99.3966 44.9409C69.0063 44.9409 44.3701 69.5618 44.3701 99.9331C44.3701 130.304 69.0063 154.925 99.3966 154.925Z" fill="#8B76FF"/>
<path d="M107.977 94.9898L91.6554 111.301C91.2447 111.711 90.7536 111.926 90.2 111.926C89.6465 111.926 89.1643 111.729 88.7626 111.328C88.3608 110.926 88.1554 110.444 88.1643 109.891C88.1643 109.338 88.3786 108.856 88.7893 108.437L105.111 92.1256L90.9322 92.2683C90.3518 92.2683 89.8786 92.081 89.5125 91.6883C89.1465 91.2957 88.959 90.805 88.9679 90.2339C88.9947 89.6807 89.2001 89.1988 89.5751 88.7973C89.95 88.3958 90.4322 88.1905 91.0125 88.1905L110.102 88.0032C110.387 88.0032 110.646 88.0478 110.879 88.1549C111.111 88.2619 111.316 88.4136 111.504 88.601C111.691 88.7884 111.843 89.0025 111.95 89.2256C112.057 89.4487 112.111 89.7074 112.102 90.0019L111.914 109.088C111.914 109.615 111.709 110.087 111.307 110.489C110.905 110.891 110.423 111.105 109.87 111.131C109.289 111.131 108.807 110.944 108.414 110.551C108.021 110.159 107.825 109.668 107.834 109.097L107.977 94.9988V94.9898Z" fill="#FAF9F6"/>
<path d="M9.91272 92.2119C9.2541 92.1275 8.68815 91.918 8.21488 91.5832C7.74262 91.2404 7.39763 90.8172 7.17991 90.3135C6.95527 89.8008 6.87957 89.2588 6.9528 88.6874C7.01892 88.1717 7.17954 87.7365 7.43468 87.3821C7.6829 87.0187 7.97253 86.7412 8.30357 86.5497L7.35134 86.4278L7.5268 85.059L14.0853 85.8986L13.9098 87.2674L12.9338 87.1424C13.2138 87.4122 13.4315 87.7586 13.5869 88.1818C13.7424 88.605 13.7876 89.0705 13.7225 89.5783C13.6503 90.1417 13.4413 90.6392 13.0956 91.0708C12.742 91.5014 12.2895 91.8225 11.7381 92.0342C11.1798 92.237 10.5713 92.2962 9.91272 92.2119ZM10.6246 86.8468C10.1723 86.7889 9.76732 86.8338 9.40962 86.9816C9.05295 87.1215 8.768 87.331 8.55477 87.6102C8.34155 87.8893 8.21256 88.2035 8.1678 88.5526C8.12305 88.9018 8.16863 89.2383 8.30456 89.5622C8.43255 89.8851 8.65097 90.163 8.95984 90.3961C9.26179 90.6203 9.63892 90.7613 10.0912 90.8192C10.5435 90.8772 10.952 90.8367 11.3166 90.6979C11.6822 90.5511 11.9756 90.3386 12.1968 90.0605C12.411 89.7734 12.54 89.4592 12.5838 89.118C12.6285 88.7688 12.5829 88.4323 12.447 88.1085C12.3111 87.7846 12.0882 87.51 11.7783 87.2849C11.4615 87.0507 11.0769 86.9047 10.6246 86.8468Z" fill="black"/>
<path d="M11.7109 80.6341C11.0523 80.4647 10.5091 80.1844 10.0811 79.7934C9.64736 79.3927 9.35579 78.9212 9.20639 78.3788C9.05699 77.8365 9.06113 77.2593 9.21882 76.6473C9.41843 75.8726 9.76905 75.2813 10.2707 74.8735C10.7666 74.4559 11.3783 74.2457 12.106 74.243L11.7378 75.6723C11.3902 75.7067 11.0943 75.8289 10.8503 76.0387C10.6062 76.2485 10.4343 76.547 10.3345 76.9344C10.1947 77.4767 10.2767 77.9603 10.5802 78.3854C10.878 78.8007 11.3717 79.0971 12.0612 79.2746C12.7507 79.452 13.3301 79.4318 13.7993 79.2138C14.2705 78.9881 14.576 78.6041 14.7157 78.0619C14.9133 77.2949 14.7071 76.7007 14.0969 76.2794L14.4652 74.8501C15.0681 75.2035 15.4973 75.6857 15.753 76.2967C16.0009 76.9057 16.027 77.5898 15.8314 78.349C15.6737 78.961 15.3984 79.4684 15.0054 79.8711C14.6048 80.2719 14.1216 80.5441 13.5559 80.6876C12.9844 80.8214 12.3694 80.8036 11.7109 80.6341Z" fill="black"/>
<path d="M16.8519 64.1826C17.0829 64.2729 17.2857 64.3694 17.4603 64.472L15.6192 69.1766C16.1256 69.3315 16.5919 69.3033 17.0182 69.092C17.4445 68.8807 17.751 68.5367 17.9376 68.0599C18.2058 67.3745 18.1084 66.7781 17.6455 66.2708L18.1834 64.8963C18.6768 65.3039 19.0098 65.8249 19.1825 66.4593C19.3506 67.0833 19.2933 67.7566 19.0105 68.4793C18.7802 69.0678 18.4428 69.5458 17.9984 69.9132C17.5494 70.2702 17.034 70.4897 16.4521 70.5715C15.8658 70.6429 15.2559 70.5549 14.6226 70.3073C13.9892 70.0598 13.4837 69.7162 13.1059 69.2765C12.7237 68.8265 12.4925 68.3195 12.4125 67.7557C12.3354 67.1845 12.4149 66.5971 12.651 65.9937C12.8784 65.4126 13.2077 64.9443 13.6389 64.5889C14.0701 64.2335 14.5662 64.0194 15.1273 63.9466C15.6809 63.871 16.2558 63.9497 16.8519 64.1826ZM15.9291 65.3552C15.4568 65.1792 15.0149 65.1997 14.6035 65.4168C14.1921 65.634 13.8916 65.9847 13.7021 66.4689C13.5301 66.9084 13.5244 67.34 13.6851 67.7635C13.8384 68.1842 14.1418 68.5175 14.5953 68.7635L15.9291 65.3552Z" fill="black"/>
<path d="M23.2242 59.304C22.9797 59.7629 22.6784 60.1327 22.3204 60.4135C21.9591 60.6834 21.5807 60.8491 21.1854 60.9106C20.783 60.9683 20.4015 60.9103 20.0408 60.7366L20.7066 59.4869C20.965 59.5972 21.2354 59.5915 21.5178 59.4699C21.7968 59.3374 22.0229 59.1088 22.1959 58.784C22.3764 58.4451 22.452 58.1501 22.4227 57.8988C22.3901 57.6368 22.2713 57.4513 22.0665 57.3423C21.8476 57.2259 21.6287 57.2453 21.4099 57.4008C21.1949 57.5492 20.9035 57.8155 20.5356 58.1997C20.1824 58.5736 19.8759 58.8682 19.6162 59.0834C19.3565 59.2987 19.0556 59.4467 18.7134 59.5274C18.3751 59.6011 18.0152 59.5365 17.6338 59.3336C17.3231 59.1683 17.0894 58.9262 16.933 58.6073C16.7695 58.2847 16.7038 57.9145 16.736 57.4967C16.772 57.0718 16.9085 56.6369 17.1455 56.1921C17.499 55.5284 17.9525 55.0855 18.5059 54.8634C19.056 54.6305 19.6281 54.654 20.2223 54.9339L19.5791 56.1413C19.3065 56.0234 19.0418 56.0185 18.7848 56.1265C18.5279 56.2344 18.3129 56.4508 18.1399 56.7756C17.9707 57.0933 17.9009 57.3689 17.9307 57.6022C17.9605 57.8355 18.0743 58.0048 18.272 58.11C18.4274 58.1927 18.5882 58.2057 18.7543 58.1491C18.9204 58.0925 19.0785 57.9999 19.2286 57.8713C19.3716 57.739 19.5736 57.5384 19.8347 57.2695C20.1734 56.906 20.4742 56.622 20.7372 56.4176C20.9969 56.2024 21.2924 56.056 21.6237 55.9786C21.955 55.9011 22.3097 55.9584 22.6878 56.1505C23.0198 56.3271 23.2675 56.5767 23.431 56.8993C23.5945 57.222 23.6602 57.5922 23.628 58.01C23.5995 58.4208 23.4649 58.8521 23.2242 59.304Z" fill="black"/>
<path d="M28.1673 51.1431C27.8738 51.5724 27.5338 51.9069 27.147 52.1466C26.7582 52.3751 26.3639 52.4983 25.9642 52.516C25.5579 52.5291 25.185 52.4296 24.8457 52.2172L25.6448 51.0483C25.8896 51.1863 26.159 51.2104 26.453 51.1206C26.7449 51.0196 26.9947 50.8172 27.2024 50.5134C27.4191 50.1964 27.5267 49.9114 27.5251 49.6585C27.5215 49.3945 27.4239 49.1971 27.2323 49.0663C27.0274 48.9264 26.8078 48.9217 26.5732 49.0522C26.3432 49.1761 26.0242 49.4087 25.6164 49.7502C25.2241 50.083 24.8871 50.3421 24.6053 50.5275C24.3236 50.7129 24.0082 50.8269 23.6592 50.8696C23.3148 50.9056 22.9642 50.8019 22.6074 50.5583C22.3167 50.3598 22.1111 50.0935 21.9906 49.7594C21.8636 49.4208 21.839 49.0456 21.917 48.6339C21.9994 48.2155 22.1829 47.7983 22.4673 47.3822C22.8917 46.7614 23.3911 46.3711 23.9656 46.2112C24.538 46.0401 25.1041 46.1263 25.6639 46.4698L24.8919 47.5992C24.6339 47.4521 24.3713 47.4181 24.104 47.4971C23.8368 47.5762 23.5993 47.7676 23.3916 48.0714C23.1885 48.3686 23.0889 48.6348 23.0928 48.87C23.0968 49.1052 23.1913 49.286 23.3763 49.4123C23.5216 49.5115 23.68 49.5421 23.8513 49.5041C24.0227 49.4661 24.19 49.3915 24.3533 49.2802C24.51 49.1643 24.7329 48.9872 25.0219 48.7486C25.3985 48.4245 25.7287 48.1753 26.0126 48.0011C26.2944 47.8157 26.6042 47.7027 26.942 47.6621C27.2799 47.6215 27.6261 47.7175 27.9808 47.95C28.2914 48.162 28.5102 48.4373 28.6372 48.7759C28.7643 49.1145 28.7889 49.4897 28.7109 49.9014C28.6374 50.3066 28.4563 50.7205 28.1673 51.1431Z" fill="black"/>
<path d="M33.6602 38.4531C33.8478 38.6154 34.0067 38.774 34.137 38.929L30.8294 42.7477C31.2549 43.063 31.7039 43.1922 32.1764 43.1355C32.6488 43.0788 33.0527 42.8569 33.3879 42.4699C33.8698 41.9136 33.9773 41.319 33.7104 40.6862L34.6768 39.5705C35.0057 40.1195 35.1455 40.7217 35.0963 41.3773C35.0462 42.0216 34.7672 42.637 34.2591 43.2236C33.8454 43.7013 33.3676 44.0391 32.8259 44.2368C32.2833 44.4233 31.7242 44.4579 31.1484 44.3407C30.5718 44.2121 30.0264 43.9254 29.5121 43.4805C28.9978 43.0356 28.6361 42.5429 28.427 42.0023C28.217 41.4504 28.1686 40.8955 28.2815 40.3374C28.3997 39.7732 28.671 39.2462 29.0952 38.7564C29.5038 38.2847 29.9706 37.9535 30.4959 37.7625C31.0211 37.5716 31.5603 37.5356 32.1135 37.6545C32.6606 37.7682 33.1762 38.0344 33.6602 38.4531ZM32.3986 39.2499C32.0122 38.9262 31.5888 38.7979 31.1284 38.8651C30.668 38.9323 30.2676 39.1624 29.9272 39.5555C29.6182 39.9122 29.4686 40.3171 29.4785 40.7699C29.4824 41.2176 29.657 41.633 30.0023 42.0164L32.3986 39.2499Z" fill="black"/>
<path d="M46.4247 31.6196C45.9327 32.0034 45.4018 32.2399 44.832 32.3292C44.2573 32.4122 43.6989 32.3405 43.1567 32.1141C42.6095 31.8813 42.1267 31.497 41.7081 30.9611C41.2945 30.4314 41.0444 29.8707 40.9578 29.2788C40.8711 28.6869 40.9435 28.1232 41.1749 27.5876C41.4062 27.0521 41.7711 26.5899 42.2695 26.2013C42.7678 25.8126 43.305 25.5711 43.8811 25.4769C44.4571 25.3827 45.0219 25.4495 45.5753 25.6773C46.1288 25.9051 46.6123 26.2838 47.0259 26.8134C47.4395 27.3431 47.6865 27.9063 47.7668 28.5031C47.8472 29.0999 47.7678 29.6742 47.5287 30.2259C47.2911 30.7664 46.923 31.2309 46.4247 31.6196ZM45.6935 30.6833C45.971 30.4668 46.178 30.1989 46.3143 29.8795C46.4569 29.5552 46.5005 29.2016 46.4451 28.8187C46.3897 28.4358 46.2143 28.0552 45.9188 27.6769C45.6234 27.2986 45.3022 27.0368 44.9552 26.8914C44.6033 26.7398 44.2558 26.6912 43.9127 26.7458C43.5696 26.8003 43.2593 26.9359 42.9817 27.1523C42.7042 27.3688 42.4972 27.6367 42.3609 27.9561C42.2309 28.2706 42.1999 28.6143 42.268 28.9874C42.3311 29.3541 42.5103 29.7267 42.8058 30.105C43.244 30.6661 43.7257 30.9905 44.2508 31.078C44.7773 31.1544 45.2582 31.0228 45.6935 30.6833Z" fill="black"/>
<path d="M56.3154 20.9244C56.0089 20.3174 55.8617 19.7242 55.8737 19.1446C55.8893 18.5544 56.0518 18.0244 56.3613 17.5547C56.6708 17.085 57.1077 16.7078 57.672 16.4232C58.3863 16.0629 59.0621 15.9371 59.6995 16.0457C60.3404 16.1435 60.9017 16.4652 61.3834 17.0108L60.0655 17.6755C59.8105 17.4368 59.5237 17.2947 59.205 17.2494C58.8864 17.204 58.5485 17.2714 58.1913 17.4515C57.6913 17.7037 57.3815 18.084 57.2618 18.5924C57.1456 19.09 57.248 19.6566 57.569 20.2921C57.89 20.9277 58.287 21.3501 58.7602 21.5595C59.2405 21.7652 59.7307 21.742 60.2307 21.4898C60.9378 21.1331 61.2488 20.5865 61.1636 19.8499L62.4815 19.1852C62.613 19.8716 62.5332 20.5121 62.2421 21.107C61.9474 21.6946 61.45 22.165 60.75 22.5181C60.1857 22.8027 59.6226 22.9299 59.0607 22.8998C58.4951 22.8625 57.972 22.6783 57.4911 22.3474C57.0139 22.0057 56.622 21.5314 56.3154 20.9244Z" fill="black"/>
<path d="M70.9556 11.0124L73.1911 17.235L71.9035 17.6971L71.6398 16.963C71.5284 17.2919 71.3342 17.5911 71.0569 17.8606C70.7845 18.1198 70.4639 18.3156 70.0949 18.448C69.6054 18.6236 69.1284 18.68 68.6638 18.6173C68.2068 18.5518 67.7936 18.36 67.4244 18.0421C67.0627 17.7214 66.7804 17.2787 66.5775 16.714L65.2629 13.055L66.5393 12.5971L67.7848 16.0641C67.985 16.6212 68.2785 17.0004 68.6653 17.2016C69.0494 17.3952 69.4824 17.4056 69.9643 17.2327C70.4462 17.0598 70.7737 16.7765 70.9469 16.3829C71.1248 15.9791 71.1137 15.4986 70.9135 14.9415L69.668 11.4744L70.9556 11.0124Z" fill="black"/>
<path d="M78.0347 10.0459C78.1501 9.6724 78.3456 9.35769 78.6212 9.10182C78.9026 8.8363 79.265 8.65 79.7082 8.54291L80.0412 9.91922L79.7029 10.0009C79.1819 10.1268 78.8173 10.3548 78.609 10.6849C78.4086 11.0132 78.3874 11.5039 78.5454 12.1571L79.3636 15.5395L78.0338 15.8608L76.4793 9.43411L77.809 9.11285L78.0347 10.0459Z" fill="black"/>
<path d="M86.1522 8.4556C86.3003 8.09375 86.5229 7.79761 86.8201 7.56718C87.124 7.32766 87.5015 7.17422 87.9525 7.10686L88.1619 8.50729L87.8177 8.55869C87.2876 8.63787 86.9042 8.83265 86.6675 9.14302C86.4387 9.4522 86.374 9.9391 86.4734 10.6037L86.9881 14.0454L85.6351 14.2475L84.6572 7.70824L86.0102 7.50616L86.1522 8.4556Z" fill="black"/>
<path d="M94.3056 6.62449L94.7521 13.2214L93.3872 13.3137L92.9407 6.71676L94.3056 6.62449ZM94.7364 4.81531L92.1788 6.2992L92.1107 5.29351L94.6578 3.65397L94.7364 4.81531Z" fill="black"/>
<path d="M99.253 9.69658C99.2719 9.01684 99.4243 8.42484 99.7105 7.92058C100.005 7.40854 100.4 7.01935 100.895 6.75299C101.391 6.48663 101.955 6.36221 102.586 6.37974C103.386 6.40192 104.04 6.61215 104.55 7.01042C105.067 7.40091 105.408 7.95058 105.572 8.65941L104.097 8.61848C103.986 8.28728 103.801 8.02605 103.542 7.8348C103.284 7.64355 102.954 7.54238 102.554 7.53129C101.995 7.51576 101.541 7.70326 101.194 8.09379C100.855 8.47654 100.676 9.02378 100.656 9.73551C100.637 10.4472 100.785 11.0076 101.102 11.4165C101.427 11.8257 101.869 12.038 102.429 12.0535C103.22 12.0755 103.754 11.7422 104.029 11.0535L105.505 11.0945C105.294 11.7609 104.919 12.2867 104.38 12.6719C103.842 13.0491 103.18 13.2268 102.397 13.2051C101.765 13.1876 101.209 13.0321 100.729 12.7387C100.249 12.4373 99.8765 12.0268 99.6108 11.5072C99.3534 10.9799 99.2341 10.3763 99.253 9.69658Z" fill="black"/>
<path d="M116.871 7.92452L115.883 14.4623L114.53 14.2581L114.646 13.4868C114.392 13.7235 114.079 13.8947 113.707 14.0004C113.344 14.0993 112.969 14.1195 112.581 14.061C112.067 13.9834 111.621 13.8067 111.242 13.5311C110.87 13.2566 110.598 12.8918 110.424 12.4367C110.258 11.9829 110.22 11.4593 110.309 10.8661L110.891 7.02172L112.231 7.22413L111.681 10.8668C111.592 11.4521 111.67 11.9251 111.915 12.2857C112.161 12.6383 112.538 12.8529 113.044 12.9293C113.55 13.0058 113.973 12.9118 114.312 12.6475C114.661 12.3765 114.879 11.9483 114.968 11.3629L115.518 7.72031L116.871 7.92452Z" fill="black"/>
<path d="M124.319 7.29652L122.127 15.9018L120.801 15.5646L122.993 6.95929L124.319 7.29652Z" fill="black"/>
<path d="M129.476 18.2958C128.889 18.0828 128.407 17.7587 128.029 17.3235C127.653 16.8808 127.418 16.3697 127.322 15.7902C127.229 15.2032 127.299 14.5902 127.531 13.9511C127.761 13.3196 128.104 12.81 128.559 12.4223C129.015 12.0347 129.532 11.7966 130.109 11.7083C130.686 11.6199 131.271 11.6836 131.865 11.8993C132.459 12.115 132.949 12.4418 133.335 12.8797C133.72 13.3177 133.963 13.8315 134.064 14.4212C134.164 15.0109 134.1 15.6216 133.87 16.2531C133.64 16.8847 133.294 17.3929 132.831 17.7779C132.367 18.1628 131.838 18.4005 131.243 18.4909C130.659 18.5765 130.07 18.5115 129.476 18.2958ZM129.882 17.1793C130.212 17.2994 130.549 17.3325 130.893 17.2783C131.243 17.227 131.566 17.0761 131.861 16.8259C132.157 16.5757 132.386 16.225 132.55 15.7739C132.714 15.3228 132.766 14.9117 132.705 14.5406C132.647 14.1621 132.504 13.8419 132.275 13.5803C132.047 13.3186 131.768 13.1277 131.437 13.0076C131.106 12.8874 130.769 12.8544 130.426 12.9085C130.09 12.9654 129.782 13.1217 129.502 13.3774C129.224 13.6255 129.004 13.9752 128.84 14.4263C128.596 15.0954 128.577 15.6756 128.781 16.1669C128.996 16.6534 129.363 16.9909 129.882 17.1793Z" fill="black"/>
<path d="M143.796 20.9898C144.148 20.4079 144.573 19.9683 145.071 19.6708C145.579 19.3706 146.115 19.2269 146.678 19.2396C147.24 19.2524 147.792 19.4221 148.333 19.7489C149.018 20.1625 149.483 20.668 149.73 21.2655C149.987 21.8602 150.012 22.5064 149.806 23.2039L148.542 22.4407C148.609 22.098 148.577 21.7797 148.447 21.4858C148.316 21.1918 148.079 20.9414 147.737 20.7346C147.258 20.4451 146.771 20.3846 146.276 20.5531C145.792 20.7189 145.366 21.1065 144.998 21.7157C144.629 22.325 144.482 22.8855 144.556 23.3974C144.636 23.9134 144.916 24.3161 145.396 24.6057C146.074 25.0152 146.702 24.9883 147.281 24.5251L148.545 25.2883C148.033 25.764 147.447 26.0365 146.788 26.1058C146.133 26.1682 145.471 25.9968 144.799 25.5914C144.258 25.2646 143.852 24.8553 143.579 24.3634C143.31 23.8646 143.188 23.3238 143.214 22.741C143.25 22.1554 143.444 21.5716 143.796 20.9898Z" fill="black"/>
<path d="M153.375 31.4923C152.884 31.1076 152.526 30.6497 152.302 30.1187C152.083 29.5813 152.018 29.0224 152.107 28.4419C152.201 27.8551 152.458 27.2941 152.878 26.759C153.292 26.2302 153.777 25.8524 154.33 25.6256C154.884 25.3989 155.449 25.3332 156.025 25.4285C156.601 25.5238 157.138 25.7663 157.635 26.1559C158.133 26.5456 158.497 27.0084 158.727 27.5444C158.958 28.0804 159.029 28.6443 158.941 29.236C158.853 29.8277 158.602 30.388 158.187 30.9168C157.773 31.4457 157.285 31.821 156.725 32.0428C156.165 32.2646 155.588 32.326 154.995 32.2272C154.413 32.1269 153.873 31.882 153.375 31.4923ZM154.108 30.5574C154.385 30.7744 154.695 30.9106 155.038 30.9658C155.388 31.0259 155.742 30.983 156.1 30.8369C156.459 30.6909 156.786 30.429 157.082 30.0512C157.378 29.6735 157.555 29.2988 157.613 28.9273C157.675 28.5494 157.638 28.2007 157.503 27.881C157.367 27.5614 157.161 27.2931 156.883 27.0761C156.606 26.859 156.296 26.7229 155.953 26.6677C155.616 26.6174 155.275 26.6702 154.929 26.8262C154.588 26.9758 154.27 27.2395 153.974 27.6172C153.534 28.1775 153.335 28.7229 153.377 29.2533C153.43 29.7824 153.674 30.2171 154.108 30.5574Z" fill="black"/>
<path d="M169.903 37.5615C170.26 37.9396 170.5 38.3511 170.623 38.796C170.751 39.2467 170.74 39.7018 170.591 40.1613C170.447 40.6267 170.157 41.0652 169.721 41.4768L166.883 44.1521L165.952 43.166L168.641 40.6307C169.072 40.2246 169.3 39.8069 169.323 39.3776C169.353 38.9428 169.192 38.5393 168.841 38.167C168.489 37.7946 168.093 37.6077 167.651 37.6061C167.221 37.6049 166.791 37.8073 166.36 38.2134L163.67 40.7488L162.74 39.7627L165.429 37.2274C165.86 36.8213 166.087 36.4036 166.111 35.9743C166.141 35.5395 165.98 35.136 165.628 34.7637C165.277 34.3913 164.88 34.2044 164.439 34.2028C164.009 34.2016 163.578 34.404 163.147 34.8101L160.458 37.3455L159.519 36.3507L164.33 31.815L165.269 32.8098L164.719 33.3284C165.071 33.3048 165.42 33.3658 165.767 33.5117C166.113 33.6576 166.421 33.8731 166.69 34.1582C167.053 34.5421 167.295 34.9622 167.418 35.4184C167.54 35.8745 167.524 36.3295 167.37 36.7832C167.798 36.6543 168.242 36.6644 168.702 36.8136C169.167 36.9573 169.568 37.2066 169.903 37.5615Z" fill="black"/>
<path d="M175.302 46.0209C175.684 46.0402 176.074 46.1559 176.472 46.368C176.87 46.5801 177.212 46.8939 177.497 47.3094C177.823 47.7842 178.001 48.2976 178.031 48.8496C178.071 49.4037 177.958 49.9376 177.689 50.4514C177.421 50.9652 177.013 51.4099 176.466 51.7855C175.918 52.161 175.349 52.386 174.76 52.4604C174.177 52.5303 173.628 52.4511 173.112 52.2228C172.607 51.9966 172.192 51.6461 171.866 51.1712C171.581 50.7558 171.41 50.3299 171.353 49.8936C171.302 49.4528 171.332 49.0443 171.443 48.6679L168.058 50.9891L167.284 49.8613L175.329 44.3434L176.104 45.4712L175.302 46.0209ZM175.678 50.6379C176.054 50.38 176.323 50.0792 176.484 49.7354C176.657 49.3937 176.725 49.0467 176.687 48.6945C176.66 48.3443 176.547 48.0242 176.347 47.734C176.153 47.4504 175.894 47.2298 175.573 47.0722C175.255 46.9211 174.904 46.8614 174.518 46.8932C174.137 46.9316 173.758 47.0797 173.382 47.3376C173.006 47.5955 172.728 47.8976 172.549 48.2438C172.38 48.5922 172.31 48.9414 172.337 49.2915C172.368 49.6483 172.481 49.9684 172.676 50.252C172.875 50.5422 173.133 50.7628 173.451 50.9139C173.779 51.067 174.137 51.1221 174.525 51.0792C174.917 51.043 175.302 50.8959 175.678 50.6379Z" fill="black"/>
<path d="M184.477 54.6456L176.68 58.8943L176.024 57.6934L183.822 53.4447L184.477 54.6456Z" fill="black"/>
<path d="M184.466 67.4276C184.238 67.5245 184.025 67.5973 183.829 67.646L181.852 62.9968C181.382 63.24 181.068 63.5861 180.911 64.0351C180.754 64.4841 180.776 64.9442 180.977 65.4154C181.264 66.0927 181.751 66.4508 182.437 66.4899L183.015 67.8482C182.377 67.9018 181.774 67.7622 181.207 67.4295C180.65 67.101 180.22 66.5797 179.916 65.8656C179.669 65.284 179.575 64.7066 179.636 64.1333C179.707 63.5643 179.922 63.0472 180.28 62.582C180.65 62.1211 181.147 61.7578 181.773 61.492C182.399 61.2262 183.001 61.1184 183.578 61.1686C184.167 61.2231 184.687 61.4238 185.138 61.7708C185.593 62.1252 185.947 62.6006 186.201 63.1969C186.445 63.7712 186.538 64.336 186.478 64.8914C186.419 65.4468 186.214 65.9466 185.864 66.3908C185.521 66.8318 185.055 67.1774 184.466 67.4276ZM184.305 65.9446C184.766 65.7402 185.067 65.4167 185.209 64.9739C185.351 64.5312 185.321 64.0705 185.117 63.592C184.932 63.1576 184.635 62.8452 184.223 62.6548C183.819 62.4613 183.369 62.4351 182.873 62.5763L184.305 65.9446Z" fill="black"/>
<path d="M188.474 73.0228L184.974 74.0941C184.737 74.1667 184.582 74.273 184.507 74.4128C184.443 74.558 184.452 74.7644 184.534 75.0321L184.78 75.8353L183.69 76.1689L183.373 75.1364C183.193 74.5474 183.192 74.054 183.372 73.6561C183.551 73.2582 183.95 72.9644 184.57 72.7747L188.07 71.7034L187.841 70.9577L188.908 70.631L189.137 71.3768L190.709 70.8955L191.113 72.215L189.541 72.6962L190.012 74.2336L188.945 74.5602L188.474 73.0228Z" fill="black"/>
<path d="M185.246 83.208C185.127 82.5954 185.157 82.0151 185.336 81.4671C185.523 80.9175 185.84 80.4526 186.288 80.0724C186.743 79.6907 187.305 79.4351 187.973 79.3057C188.632 79.1778 189.246 79.2096 189.812 79.4012C190.379 79.5928 190.849 79.9132 191.221 80.3626C191.594 80.8119 191.84 81.3467 191.961 81.9672C192.081 82.5876 192.053 83.1757 191.876 83.7317C191.698 84.2876 191.383 84.7603 190.928 85.1499C190.474 85.5394 189.918 85.7982 189.258 85.9261C188.598 86.054 187.984 86.0182 187.416 85.8188C186.847 85.6193 186.371 85.2879 185.988 84.8244C185.614 84.3672 185.367 83.8284 185.246 83.208ZM186.413 82.9818C186.48 83.3274 186.625 83.6334 186.847 83.8998C187.072 84.1741 187.367 84.3736 187.734 84.4981C188.1 84.6226 188.519 84.6392 188.99 84.5478C189.461 84.4564 189.841 84.2892 190.127 84.0462C190.422 83.8016 190.623 83.5141 190.73 83.1837C190.837 82.8533 190.857 82.5153 190.79 82.1697C190.723 81.8242 190.578 81.5182 190.355 81.2517C190.134 80.9932 189.841 80.8094 189.478 80.7006C189.122 80.5903 188.709 80.5808 188.238 80.6722C187.539 80.8077 187.031 81.0895 186.715 81.5175C186.408 81.9518 186.307 82.44 186.413 82.9818Z" fill="black"/>
<path d="M186.891 97.986C186.886 97.7381 186.965 97.5282 187.129 97.3564C187.293 97.1845 187.499 97.0958 187.747 97.0901C187.995 97.0843 188.205 97.1635 188.377 97.3276C188.548 97.4917 188.637 97.6977 188.643 97.9457C188.648 98.1856 188.569 98.3915 188.405 98.5633C188.241 98.7351 188.035 98.8239 187.787 98.8296C187.539 98.8353 187.329 98.7561 187.157 98.592C186.986 98.4279 186.897 98.2259 186.891 97.986Z" fill="black"/>
<path d="M189.896 109.727C190.553 109.826 191.114 110.047 191.58 110.392C192.045 110.745 192.381 111.176 192.588 111.684C192.801 112.201 192.865 112.745 192.78 113.314C192.703 113.829 192.533 114.26 192.27 114.609C192.014 114.967 191.719 115.238 191.384 115.423L192.333 115.565L192.128 116.93L185.589 115.949L185.794 114.585L186.767 114.731C186.493 114.455 186.283 114.104 186.136 113.678C185.99 113.251 185.955 112.785 186.031 112.278C186.115 111.717 186.335 111.224 186.69 110.8C187.052 110.377 187.512 110.065 188.068 109.866C188.63 109.675 189.24 109.629 189.896 109.727ZM189.069 115.076C189.52 115.143 189.926 115.107 190.287 114.967C190.647 114.835 190.936 114.632 191.155 114.357C191.374 114.082 191.51 113.771 191.562 113.423C191.615 113.075 191.576 112.737 191.447 112.411C191.326 112.085 191.114 111.803 190.81 111.563C190.513 111.332 190.139 111.183 189.688 111.116C189.237 111.048 188.828 111.08 188.46 111.211C188.092 111.35 187.794 111.556 187.567 111.829C187.346 112.112 187.211 112.423 187.16 112.763C187.107 113.111 187.146 113.449 187.275 113.775C187.403 114.102 187.62 114.381 187.925 114.613C188.237 114.854 188.618 115.008 189.069 115.076Z" fill="black"/>
<path d="M187.854 121.24C188.509 121.424 189.046 121.715 189.466 122.115C189.891 122.525 190.172 123.003 190.31 123.548C190.448 124.094 190.431 124.671 190.261 125.279C190.045 126.049 189.681 126.633 189.171 127.03C188.667 127.437 188.05 127.634 187.323 127.621L187.721 126.2C188.07 126.173 188.368 126.057 188.617 125.853C188.865 125.648 189.043 125.354 189.151 124.968C189.303 124.429 189.231 123.944 188.937 123.512C188.648 123.091 188.16 122.784 187.475 122.592C186.789 122.4 186.21 122.408 185.736 122.616C185.26 122.831 184.946 123.209 184.795 123.748C184.581 124.511 184.775 125.109 185.376 125.543L184.977 126.964C184.382 126.598 183.963 126.107 183.72 125.491C183.486 124.877 183.474 124.192 183.686 123.437C183.856 122.829 184.142 122.327 184.544 121.933C184.953 121.541 185.442 121.279 186.011 121.147C186.585 121.026 187.199 121.057 187.854 121.24Z" fill="black"/>
<path d="M182.357 137.587C182.128 137.492 181.927 137.391 181.754 137.285L183.696 132.621C183.193 132.455 182.726 132.473 182.296 132.675C181.865 132.877 181.551 133.215 181.354 133.687C181.071 134.367 181.156 134.965 181.608 135.482L181.041 136.845C180.556 136.427 180.234 135.899 180.075 135.261C179.921 134.634 179.992 133.962 180.291 133.245C180.534 132.662 180.881 132.191 181.333 131.833C181.79 131.486 182.31 131.278 182.893 131.208C183.481 131.149 184.089 131.251 184.717 131.512C185.345 131.773 185.843 132.127 186.211 132.575C186.584 133.033 186.804 133.545 186.872 134.11C186.936 134.683 186.844 135.268 186.595 135.867C186.356 136.443 186.016 136.904 185.578 137.25C185.139 137.596 184.638 137.799 184.076 137.86C183.521 137.924 182.947 137.833 182.357 137.587ZM183.304 136.435C183.773 136.621 184.215 136.61 184.631 136.401C185.047 136.193 185.355 135.849 185.555 135.369C185.736 134.933 185.751 134.502 185.599 134.075C185.455 133.651 185.159 133.311 184.711 133.056L183.304 136.435Z" fill="black"/>
<path d="M175.881 142.339C176.135 141.885 176.444 141.522 176.808 141.249C177.175 140.987 177.557 140.829 177.953 140.776C178.357 140.727 178.737 140.794 179.094 140.975L178.402 142.21C178.146 142.094 177.875 142.094 177.59 142.21C177.308 142.336 177.078 142.56 176.898 142.881C176.71 143.216 176.628 143.509 176.652 143.761C176.679 144.024 176.794 144.212 176.996 144.325C177.212 144.446 177.432 144.431 177.654 144.281C177.872 144.137 178.169 143.877 178.545 143.501C178.906 143.134 179.219 142.847 179.483 142.637C179.747 142.427 180.051 142.286 180.395 142.212C180.735 142.146 181.093 142.218 181.47 142.429C181.778 142.601 182.006 142.848 182.155 143.17C182.312 143.497 182.37 143.868 182.329 144.285C182.283 144.709 182.138 145.141 181.891 145.581C181.523 146.236 181.061 146.67 180.503 146.88C179.948 147.101 179.376 147.065 178.788 146.772L179.457 145.579C179.727 145.703 179.992 145.713 180.251 145.611C180.51 145.509 180.73 145.297 180.909 144.976C181.086 144.662 181.161 144.388 181.136 144.154C181.112 143.92 181.001 143.748 180.806 143.639C180.652 143.553 180.492 143.536 180.325 143.589C180.157 143.643 179.997 143.732 179.845 143.857C179.699 143.986 179.492 144.182 179.226 144.446C178.879 144.802 178.572 145.079 178.305 145.278C178.041 145.488 177.742 145.628 177.409 145.698C177.076 145.768 176.723 145.703 176.349 145.503C176.021 145.319 175.779 145.065 175.622 144.739C175.466 144.413 175.408 144.041 175.449 143.624C175.486 143.214 175.63 142.786 175.881 142.339Z" fill="black"/>
<path d="M170.759 150.39C171.062 149.967 171.409 149.639 171.801 149.408C172.194 149.188 172.591 149.073 172.991 149.064C173.397 149.059 173.768 149.167 174.103 149.386L173.279 150.538C173.037 150.395 172.768 150.365 172.473 150.449C172.179 150.543 171.925 150.74 171.71 151.04C171.487 151.352 171.373 151.635 171.37 151.888C171.368 152.152 171.461 152.351 171.65 152.486C171.852 152.63 172.071 152.639 172.308 152.514C172.541 152.395 172.865 152.169 173.28 151.836C173.679 151.512 174.022 151.26 174.307 151.081C174.593 150.902 174.911 150.794 175.26 150.759C175.605 150.73 175.954 150.842 176.305 151.093C176.592 151.297 176.792 151.568 176.905 151.904C177.025 152.246 177.041 152.621 176.955 153.031C176.863 153.448 176.671 153.861 176.378 154.271C175.94 154.883 175.433 155.262 174.855 155.41C174.279 155.569 173.715 155.47 173.162 155.115L173.958 154.002C174.213 154.155 174.475 154.195 174.744 154.121C175.013 154.048 175.254 153.862 175.468 153.562C175.678 153.269 175.783 153.005 175.784 152.77C175.785 152.535 175.694 152.352 175.512 152.222C175.369 152.12 175.211 152.086 175.039 152.12C174.867 152.154 174.698 152.226 174.533 152.333C174.373 152.446 174.147 152.618 173.853 152.851C173.469 153.167 173.134 153.409 172.846 153.577C172.561 153.756 172.249 153.863 171.91 153.896C171.571 153.929 171.227 153.826 170.878 153.586C170.572 153.367 170.359 153.088 170.239 152.746C170.119 152.405 170.102 152.029 170.189 151.619C170.271 151.216 170.461 150.806 170.759 150.39Z" fill="black"/>
<path d="M165.008 162.95C164.824 162.783 164.669 162.622 164.542 162.464L167.928 158.715C167.51 158.391 167.063 158.253 166.59 158.299C166.116 158.346 165.708 158.56 165.365 158.939C164.871 159.486 164.751 160.078 165.005 160.716L164.015 161.811C163.698 161.255 163.571 160.65 163.634 159.996C163.697 159.353 163.989 158.743 164.509 158.168C164.933 157.699 165.418 157.371 165.964 157.185C166.51 157.01 167.07 156.987 167.643 157.116C168.217 157.257 168.756 157.555 169.261 158.01C169.766 158.466 170.117 158.966 170.315 159.511C170.513 160.067 170.55 160.623 170.425 161.178C170.295 161.74 170.013 162.261 169.579 162.742C169.16 163.205 168.687 163.526 168.157 163.706C167.628 163.886 167.089 163.911 166.538 163.78C165.993 163.655 165.483 163.378 165.008 162.95ZM166.286 162.179C166.666 162.511 167.086 162.648 167.548 162.591C168.01 162.533 168.415 162.312 168.764 161.926C169.08 161.575 169.238 161.174 169.238 160.721C169.243 160.273 169.077 159.854 168.74 159.464L166.286 162.179Z" fill="black"/>
<path d="M152.094 169.516C152.594 169.143 153.13 168.918 153.701 168.841C154.278 168.77 154.834 168.854 155.372 169.092C155.914 169.336 156.388 169.731 156.795 170.275C157.197 170.814 157.435 171.38 157.509 171.973C157.583 172.567 157.499 173.129 157.256 173.66C157.013 174.19 156.638 174.644 156.132 175.022C155.625 175.4 155.083 175.63 154.505 175.712C153.927 175.794 153.364 175.715 152.815 175.475C152.267 175.235 151.792 174.846 151.389 174.308C150.987 173.77 150.752 173.201 150.685 172.603C150.617 172.004 150.709 171.432 150.96 170.886C151.209 170.35 151.587 169.894 152.094 169.516ZM152.805 170.468C152.522 170.678 152.31 170.942 152.167 171.258C152.017 171.579 151.966 171.932 152.013 172.316C152.06 172.7 152.228 173.084 152.515 173.469C152.802 173.853 153.118 174.122 153.461 174.275C153.81 174.434 154.156 174.49 154.5 174.443C154.845 174.395 155.158 174.267 155.44 174.056C155.722 173.846 155.935 173.582 156.078 173.266C156.215 172.954 156.253 172.611 156.193 172.237C156.138 171.869 155.966 171.492 155.679 171.108C155.253 170.537 154.779 170.203 154.255 170.104C153.731 170.016 153.247 170.138 152.805 170.468Z" fill="black"/>
<path d="M141.99 179.996C142.284 180.609 142.418 181.205 142.394 181.784C142.365 182.374 142.191 182.901 141.872 183.363C141.552 183.826 141.107 184.194 140.537 184.467C139.815 184.811 139.137 184.923 138.502 184.801C137.863 184.689 137.309 184.355 136.839 183.799L138.171 183.163C138.421 183.407 138.705 183.556 139.022 183.608C139.34 183.66 139.679 183.6 140.04 183.427C140.545 183.186 140.863 182.812 140.994 182.307C141.121 181.812 141.031 181.243 140.723 180.601C140.416 179.958 140.028 179.528 139.56 179.308C139.084 179.092 138.593 179.105 138.088 179.346C137.373 179.688 137.051 180.227 137.12 180.966L135.788 181.602C135.671 180.913 135.765 180.274 136.069 179.686C136.376 179.105 136.883 178.645 137.591 178.307C138.161 178.035 138.727 177.919 139.288 177.962C139.853 178.011 140.372 178.206 140.845 178.548C141.315 178.899 141.697 179.382 141.99 179.996Z" fill="black"/>
<path d="M127.151 189.585L125.047 183.316L126.344 182.882L126.592 183.621C126.711 183.295 126.911 182.999 127.194 182.736C127.472 182.483 127.797 182.294 128.168 182.169C128.661 182.004 129.139 181.957 129.602 182.03C130.058 182.105 130.467 182.305 130.83 182.631C131.184 182.959 131.457 183.408 131.648 183.977L132.885 187.663L131.599 188.094L130.427 184.601C130.239 184.04 129.954 183.655 129.571 183.445C129.191 183.244 128.759 183.224 128.273 183.387C127.788 183.549 127.454 183.826 127.273 184.216C127.086 184.616 127.087 185.096 127.276 185.657L128.448 189.15L127.151 189.585Z" fill="black"/>
<path d="M120.064 190.396C119.94 190.767 119.738 191.078 119.458 191.328C119.171 191.588 118.804 191.766 118.359 191.864L118.055 190.481L118.395 190.406C118.918 190.291 119.288 190.071 119.503 189.745C119.71 189.421 119.742 188.931 119.597 188.275L118.85 184.876L120.186 184.583L121.606 191.041L120.27 191.334L120.064 190.396Z" fill="black"/>
<path d="M111.886 191.828C111.73 192.186 111.501 192.478 111.199 192.702C110.89 192.935 110.51 193.08 110.057 193.138L109.878 191.733L110.223 191.689C110.755 191.621 111.142 191.435 111.385 191.129C111.621 190.825 111.696 190.34 111.611 189.673L111.169 186.221L112.526 186.048L113.365 192.607L112.008 192.78L111.886 191.828Z" fill="black"/>
<path d="M103.717 193.476L103.409 186.871L104.775 186.807L105.083 193.412L103.717 193.476ZM103.248 195.276L105.837 193.846L105.883 194.853L103.303 196.438L103.248 195.276Z" fill="black"/>
<path d="M98.8052 190.302C98.7719 190.981 98.6068 191.57 98.31 192.068C98.0048 192.573 97.6017 192.954 97.1005 193.21C96.5994 193.466 96.0332 193.578 95.4019 193.547C94.6029 193.508 93.9531 193.284 93.4526 192.875C92.9436 192.473 92.6146 191.917 92.4653 191.204L93.9395 191.277C94.0433 191.61 94.2225 191.875 94.4772 192.072C94.7318 192.269 95.0589 192.377 95.4584 192.396C96.0178 192.424 96.475 192.246 96.8303 191.863C97.1771 191.488 97.368 190.944 97.4029 190.233C97.4378 189.522 97.3013 188.959 96.9933 188.543C96.6773 188.127 96.2397 187.905 95.6804 187.878C94.8893 187.839 94.3489 188.161 94.059 188.844L92.5848 188.771C92.8095 188.11 93.1954 187.592 93.7424 187.218C94.289 186.853 94.9538 186.689 95.7369 186.727C96.3681 186.758 96.9206 186.926 97.3942 187.229C97.8675 187.541 98.2315 187.959 98.486 188.484C98.7322 189.017 98.8386 189.623 98.8052 190.302Z" fill="black"/>
<path d="M81.1766 191.702L82.3039 185.187L83.6519 185.42L83.5189 186.188C83.7782 185.957 84.0948 185.792 84.469 185.695C84.8339 185.604 85.2094 185.591 85.5957 185.658C86.1081 185.747 86.5509 185.933 86.924 186.216C87.2892 186.499 87.5539 186.869 87.7181 187.328C87.8744 187.785 87.9015 188.309 87.7992 188.901L87.1363 192.732L85.8001 192.501L86.4282 188.871C86.5291 188.287 86.461 187.813 86.2239 187.447C85.9854 187.089 85.6139 186.867 85.1094 186.78C84.6049 186.692 84.1802 186.777 83.8353 187.034C83.4812 187.298 83.2537 187.721 83.1527 188.305L82.5247 191.935L81.1766 191.702Z" fill="black"/>
<path d="M73.7167 192.174L76.0926 183.618L77.4108 183.983L75.0349 192.539L73.7167 192.174Z" fill="black"/>
<path d="M68.7709 181.057C69.3527 181.283 69.8278 181.617 70.1964 182.06C70.562 182.511 70.7864 183.027 70.8696 183.609C70.9499 184.198 70.867 184.809 70.6208 185.443C70.3776 186.069 70.0238 186.571 69.5596 186.949C69.0954 187.327 68.574 187.553 67.9953 187.629C67.4165 187.705 66.8326 187.629 66.2433 187.4C65.6541 187.172 65.1715 186.835 64.7955 186.388C64.4195 185.942 64.1876 185.423 64.0999 184.832C64.0121 184.24 64.0899 183.631 64.3331 183.004C64.5764 182.378 64.9338 181.877 65.4055 181.502C65.8772 181.128 66.4113 180.901 67.0078 180.824C67.594 180.751 68.1817 180.829 68.7709 181.057ZM68.3409 182.165C68.0127 182.037 67.6765 181.997 67.3322 182.044C66.9805 182.087 66.6544 182.231 66.3537 182.475C66.0531 182.719 65.8159 183.064 65.6421 183.512C65.4684 183.959 65.4079 184.369 65.4607 184.741C65.5107 185.121 65.6469 185.444 65.8695 185.711C66.0922 185.977 66.3676 186.174 66.6957 186.302C67.0239 186.429 67.3601 186.469 67.7044 186.423C68.0412 186.373 68.3524 186.223 68.6381 185.974C68.921 185.732 69.1492 185.387 69.323 184.939C69.5807 184.276 69.6127 183.696 69.419 183.2C69.2149 182.709 68.8555 182.364 68.3409 182.165Z" fill="black"/>
<path d="M54.5289 178.063C54.1647 178.637 53.7305 179.067 53.2265 179.354C52.7115 179.644 52.1728 179.776 51.6106 179.751C51.0484 179.726 50.5004 179.545 49.9665 179.207C49.2907 178.779 48.836 178.263 48.6024 177.661C48.3577 177.061 48.3462 176.414 48.5679 175.721L49.8147 176.511C49.7404 176.852 49.7655 177.171 49.89 177.468C50.0144 177.765 50.2456 178.02 50.5835 178.234C51.0566 178.534 51.5421 178.604 52.0402 178.447C52.5273 178.291 52.9615 177.913 53.3428 177.311C53.7242 176.71 53.8835 176.153 53.8206 175.64C53.7511 175.122 53.4797 174.713 53.0067 174.414C52.3376 173.99 51.7086 174.003 51.1195 174.454L49.8726 173.664C50.3948 173.199 50.986 172.939 51.6463 172.884C52.3023 172.836 52.9614 173.021 53.6237 173.441C54.1576 173.779 54.5557 174.197 54.8179 174.695C55.0759 175.199 55.1861 175.742 55.1483 176.324C55.0996 176.909 54.8931 177.489 54.5289 178.063Z" fill="black"/>
<path d="M45.1417 167.329C45.6281 167.72 45.98 168.182 46.1974 168.716C46.4097 169.256 46.4677 169.816 46.3712 170.395C46.2698 170.981 46.0059 171.539 45.5797 172.068C45.1584 172.592 44.6695 172.964 44.1128 173.183C43.5561 173.403 42.9904 173.462 42.4158 173.359C41.8411 173.257 41.3075 173.007 40.8148 172.612C40.3222 172.216 39.964 171.748 39.7404 171.209C39.5168 170.671 39.4526 170.106 39.5479 169.515C39.6431 168.925 39.9013 168.368 40.3225 167.844C40.7438 167.321 41.2359 166.951 41.7988 166.737C42.3617 166.522 42.9393 166.468 43.5314 166.574C44.1122 166.682 44.649 166.933 45.1417 167.329ZM44.397 168.255C44.1226 168.034 43.8143 167.894 43.472 167.835C43.1234 167.77 42.769 167.809 42.4088 167.95C42.0485 168.092 41.7179 168.35 41.417 168.724C41.1161 169.098 40.9346 169.47 40.8724 169.841C40.8052 170.218 40.8375 170.567 40.9691 170.888C41.1008 171.21 41.3038 171.48 41.5782 171.701C41.8526 171.921 42.161 172.061 42.5032 172.121C42.8393 172.175 43.1812 172.127 43.529 171.975C43.8718 171.83 44.1937 171.57 44.4946 171.196C44.9409 170.642 45.1466 170.099 45.1117 169.568C45.0655 169.038 44.8273 168.601 44.397 168.255Z" fill="black"/>
<path d="M28.7714 160.936C28.4227 160.55 28.1916 160.134 28.0783 159.686C27.9596 159.233 27.9799 158.778 28.1389 158.322C28.2927 157.86 28.5922 157.428 29.0375 157.025L31.932 154.412L32.8414 155.418L30.0983 157.895C29.6589 158.291 29.4227 158.704 29.3897 159.133C29.3507 159.567 29.5029 159.974 29.8463 160.353C30.1897 160.733 30.582 160.929 31.0234 160.94C31.4535 160.95 31.8882 160.757 32.3276 160.36L35.0707 157.883L35.9801 158.889L33.237 161.366C32.7976 161.763 32.5614 162.176 32.5284 162.604C32.4894 163.038 32.6416 163.445 32.985 163.825C33.3283 164.205 33.7207 164.4 34.1621 164.411C34.5922 164.422 35.0269 164.228 35.4663 163.832L38.2094 161.355L39.1268 162.369L34.2195 166.801L33.3021 165.786L33.8631 165.279C33.511 165.295 33.1632 165.227 32.8197 165.074C32.4762 164.92 32.173 164.698 31.9101 164.407C31.556 164.016 31.3226 163.591 31.2098 163.132C31.0971 162.673 31.1229 162.219 31.2874 161.768C30.8564 161.888 30.4126 161.868 29.9561 161.709C29.4936 161.556 29.0987 161.298 28.7714 160.936Z" fill="black"/>
<path d="M23.5461 152.356C23.1646 152.329 22.7772 152.205 22.3839 151.984C21.9906 151.763 21.6559 151.442 21.3796 151.021C21.0639 150.539 20.8972 150.022 20.8795 149.469C20.8507 148.915 20.976 148.383 21.2553 147.875C21.5346 147.367 21.9521 146.932 22.5076 146.568C23.0632 146.204 23.6365 145.992 24.2273 145.93C24.8115 145.873 25.359 145.964 25.8698 146.203C26.3694 146.44 26.7771 146.8 27.0928 147.282C27.3691 147.703 27.5309 148.133 27.5784 148.57C27.6193 149.012 27.5804 149.42 27.462 149.794L30.8959 147.546L31.6457 148.69L23.4826 154.033L22.7328 152.889L23.5461 152.356ZM23.2706 147.732C22.889 147.982 22.6137 148.277 22.4445 148.617C22.2642 148.955 22.1892 149.301 22.2197 149.654C22.239 150.004 22.3452 150.327 22.5381 150.621C22.7266 150.909 22.98 151.135 23.2983 151.3C23.6122 151.458 23.9623 151.525 24.3487 151.501C24.7307 151.471 25.1125 151.331 25.494 151.082C25.8756 150.832 26.1598 150.536 26.3468 150.194C26.5227 149.849 26.601 149.501 26.5816 149.151C26.5579 148.793 26.4518 148.471 26.2632 148.183C26.0703 147.889 25.8169 147.663 25.503 147.505C25.178 147.345 24.8212 147.282 24.4325 147.316C24.0395 147.344 23.6521 147.483 23.2706 147.732Z" fill="black"/>
<path d="M14.5702 143.547L22.4572 139.466L23.0864 140.681L15.1994 144.762L14.5702 143.547Z" fill="black"/>
<path d="M14.8505 130.751C15.0808 130.659 15.2948 130.591 15.4924 130.547L17.3679 135.238C17.8434 135.005 18.1644 134.665 18.3309 134.22C18.4974 133.774 18.4857 133.314 18.2956 132.839C18.0223 132.155 17.5433 131.787 16.8583 131.733L16.3104 130.362C16.9493 130.322 17.5487 130.475 18.1088 130.82C18.6585 131.16 19.0773 131.691 19.3654 132.411C19.6001 132.998 19.6809 133.577 19.608 134.149C19.5247 134.717 19.2987 135.229 18.9301 135.686C18.5512 136.139 18.0459 136.492 17.4144 136.744C16.7829 136.996 16.1789 137.091 15.6024 137.028C15.0156 136.961 14.5 136.749 14.0559 136.392C13.6087 136.028 13.2649 135.545 13.0243 134.943C12.7926 134.364 12.7125 133.797 12.784 133.243C12.8554 132.689 13.071 132.194 13.4306 131.758C13.7828 131.324 14.2561 130.989 14.8505 130.751ZM14.9794 132.237C14.5143 132.432 14.206 132.749 14.0543 133.188C13.9027 133.628 13.9234 134.089 14.1164 134.572C14.2917 135.01 14.5828 135.329 14.9899 135.528C15.3895 135.73 15.8389 135.766 16.3382 135.636L14.9794 132.237Z" fill="black"/>
<path d="M10.9685 125.084L14.4904 124.089C14.7291 124.021 14.887 123.918 14.9643 123.78C15.0317 123.636 15.0272 123.43 14.9509 123.16L14.7221 122.352L15.8191 122.042L16.1133 123.081C16.2811 123.674 16.2711 124.167 16.0834 124.561C15.8956 124.955 15.4899 125.24 14.8664 125.416L11.3445 126.412L11.557 127.163L10.4831 127.466L10.2706 126.716L8.68867 127.163L8.3127 125.836L9.89466 125.388L9.45658 123.841L10.5305 123.537L10.9685 125.084Z" fill="black"/>
<path d="M14.4122 114.972C14.518 115.587 14.4757 116.166 14.2853 116.71C14.0869 117.256 13.7599 117.714 13.3041 118.084C12.8405 118.456 12.2736 118.7 11.6034 118.815C10.9411 118.929 10.3286 118.884 9.76595 118.68C9.20326 118.477 8.74051 118.146 8.37771 117.689C8.01491 117.232 7.77991 116.692 7.67271 116.069C7.56551 115.446 7.60646 114.859 7.79556 114.307C7.98467 113.755 8.31036 113.289 8.77263 112.909C9.2349 112.529 9.79718 112.283 10.4595 112.169C11.1218 112.055 11.7349 112.104 12.299 112.315C12.863 112.527 13.3317 112.868 13.7051 113.34C14.0693 113.805 14.305 114.349 14.4122 114.972ZM13.2414 115.173C13.1816 114.826 13.0432 114.517 12.8261 114.246C12.6076 113.967 12.3165 113.761 11.9528 113.629C11.5891 113.497 11.1707 113.471 10.6976 113.552C10.2246 113.634 9.84201 113.793 9.54996 114.03C9.25003 114.268 9.04306 114.551 8.92905 114.879C8.81505 115.207 8.7879 115.545 8.84761 115.892C8.90731 116.239 9.04574 116.548 9.26287 116.819C9.47865 117.082 9.76704 117.272 10.128 117.388C10.4812 117.506 10.8942 117.525 11.3673 117.443C12.069 117.323 12.5825 117.052 12.9078 116.63C13.2238 116.203 13.335 115.717 13.2414 115.173Z" fill="black"/>
<path d="M13.0863 100.172C13.0868 100.42 13.0031 100.628 12.8354 100.797C12.6677 100.965 12.4599 101.049 12.2119 101.05C11.9639 101.05 11.7557 100.966 11.5874 100.799C11.4191 100.631 11.3348 100.423 11.3343 100.175C11.3339 99.9352 11.4176 99.7311 11.5853 99.5628C11.753 99.3945 11.9608 99.3101 12.2088 99.3097C12.4568 99.3092 12.665 99.3929 12.8333 99.5606C13.0016 99.7283 13.0859 99.9322 13.0863 100.172Z" fill="black"/>
</svg>
