<svg width="175" height="175" viewBox="0 0 175 175" fill="none" xmlns="http://www.w3.org/2000/svg">
<circle cx="87" cy="86.9998" r="43" fill="#101720"/>
<path d="M21.4084 77.8263C20.6495 77.6706 20.0094 77.3774 19.488 76.9465C18.9685 76.5065 18.6041 75.9839 18.3947 75.3788C18.1781 74.7627 18.1373 74.1255 18.2723 73.4673C18.3942 72.873 18.619 72.3808 18.9467 71.9907C19.2672 71.5895 19.6283 71.292 20.0302 71.0981L18.933 70.8731L19.2565 69.2959L26.8132 70.8459L26.4897 72.4231L25.3651 72.1924C25.6673 72.5307 25.8904 72.9528 26.0343 73.4587C26.1783 73.9646 26.1902 74.5101 26.0702 75.0953C25.9371 75.7444 25.6506 76.305 25.2108 76.7769C24.7619 77.2469 24.2074 77.581 23.5475 77.7791C22.8803 77.9662 22.1673 77.9819 21.4084 77.8263ZM22.7045 71.6467C22.1833 71.5398 21.7083 71.5567 21.2792 71.6973C20.8521 71.8289 20.5023 72.0477 20.2299 72.3539C19.9575 72.6601 19.7801 73.0143 19.6975 73.4166C19.615 73.8189 19.6387 74.2144 19.7686 74.6031C19.8893 74.9899 20.1192 75.3324 20.4582 75.6306C20.7899 75.9178 21.2164 76.1148 21.7375 76.2217C22.2587 76.3286 22.7374 76.3172 23.1737 76.1876C23.6118 76.0488 23.9717 75.8272 24.2532 75.5229C24.5275 75.2076 24.705 74.8534 24.7856 74.4602C24.8681 74.0579 24.8444 73.6624 24.7146 73.2737C24.5847 72.8851 24.3493 72.5462 24.0084 72.2571C23.6603 71.9571 23.2256 71.7536 22.7045 71.6467Z" fill="#101720"/>
<path d="M23.3892 68.8463C22.6396 68.5863 22.0347 68.2086 21.5743 67.7131C21.1082 67.2056 20.8141 66.6295 20.692 65.9845C20.5699 65.3396 20.6297 64.6688 20.8713 63.9722C21.1771 63.0904 21.641 62.4363 22.2631 62.0099C22.8794 61.5716 23.6107 61.3857 24.457 61.452L23.8928 63.0789C23.4854 63.0858 23.1298 63.1996 22.8261 63.4202C22.5223 63.6409 22.294 63.9717 22.1411 64.4126C21.927 65.0298 21.9762 65.6001 22.2886 66.1234C22.5953 66.6348 23.1411 67.0265 23.9259 67.2987C24.7107 67.5709 25.3863 67.6027 25.9526 67.3941C26.5219 67.1766 26.9136 66.7593 27.1277 66.142C27.4305 65.269 27.2472 64.5584 26.5779 64.0101L27.1421 62.3832C27.8095 62.8517 28.2626 63.4535 28.5017 64.1884C28.7319 64.9202 28.6972 65.7182 28.3975 66.5824C28.1559 67.279 27.7875 67.8428 27.2923 68.2736C26.7883 68.7014 26.2006 68.9718 25.5292 69.0847C24.8521 69.1857 24.1387 69.1062 23.3892 68.8463Z" fill="#101720"/>
<path d="M29.4411 54.0522C29.7001 54.1813 29.9257 54.3145 30.1179 54.452L27.4897 59.7276C28.0619 59.9605 28.6066 59.9764 29.1239 59.7753C29.6411 59.5742 30.033 59.2063 30.2993 58.6716C30.6822 57.903 30.6311 57.1998 30.146 56.5619L30.9138 55.0206C31.4447 55.5457 31.7775 56.1859 31.9121 56.9412C32.0426 57.684 31.906 58.4606 31.5023 59.2709C31.1735 59.9309 30.7318 60.4512 30.1773 60.8318C29.6185 61.2 28.9968 61.4012 28.3124 61.4356C27.6237 61.4575 26.9243 61.2915 26.2142 60.9378C25.5041 60.584 24.9525 60.132 24.5593 59.5816C24.162 59.0187 23.9461 58.4054 23.9118 57.7418C23.8816 57.0698 24.035 56.3955 24.3721 55.7188C24.6967 55.0672 25.128 54.5573 25.6659 54.1892C26.2038 53.8211 26.8025 53.6241 27.462 53.5981C28.1131 53.5679 28.7728 53.7193 29.4411 54.0522ZM28.2471 55.3187C27.7166 55.0649 27.2011 55.0427 26.7005 55.2521C26.2 55.4615 25.8144 55.8377 25.5439 56.3808C25.2983 56.8736 25.2469 57.3746 25.3896 57.8836C25.5239 58.3885 25.8417 58.8075 26.3431 59.1407L28.2471 55.3187Z" fill="#101720"/>
<path d="M35.2662 52.7898C34.9331 53.2969 34.5437 53.6943 34.0978 53.9821C33.6493 54.257 33.1921 54.409 32.7263 54.4381C32.2528 54.462 31.8159 54.3537 31.4155 54.1131L32.3225 52.7323C32.6109 52.8883 32.9256 52.9107 33.2665 52.7996C33.6048 52.6757 33.8917 52.4342 34.1274 52.0754C34.3734 51.7009 34.4928 51.3662 34.4856 51.0711C34.4757 50.7631 34.3576 50.5348 34.1314 50.3863C33.8896 50.2274 33.6333 50.2266 33.3625 50.3838C33.0969 50.5331 32.73 50.8113 32.2616 51.2184C31.8113 51.6149 31.4238 51.9244 31.0992 52.1466C30.7745 52.3689 30.4092 52.5086 30.0032 52.5657C29.6023 52.6151 29.1912 52.5014 28.7699 52.2247C28.4267 51.9993 28.1812 51.6929 28.0336 51.3056C27.8782 50.9132 27.8416 50.476 27.9237 49.9939C28.0109 49.5041 28.2159 49.0134 28.5387 48.5219C29.0204 47.7886 29.5945 47.3226 30.261 47.1239C30.9248 46.9122 31.5868 47.0009 32.247 47.3899L31.3708 48.7238C31.0668 48.5577 30.7598 48.5235 30.4499 48.6214C30.1399 48.7193 29.8671 48.9477 29.6314 49.3066C29.4008 49.6576 29.2903 49.9703 29.3 50.2446C29.3096 50.519 29.4237 50.7279 29.6421 50.8713C29.8137 50.9841 29.999 51.0164 30.198 50.9685C30.397 50.9205 30.5906 50.8299 30.7786 50.6966C30.9589 50.5581 31.215 50.3467 31.547 50.0623C31.9792 49.6762 32.359 49.3785 32.6863 49.1691C33.011 48.9469 33.3699 48.8085 33.763 48.754C34.1561 48.6996 34.5619 48.8042 34.9805 49.068C35.3471 49.3088 35.6082 49.6254 35.7636 50.0178C35.919 50.4102 35.9557 50.8475 35.8736 51.3295C35.7966 51.8038 35.5941 52.2905 35.2662 52.7898Z" fill="#101720"/>
<path d="M39.3252 47.3478C38.9391 47.8157 38.5087 48.1684 38.0342 48.4061C37.5584 48.6306 37.0875 48.732 36.6213 48.7103C36.148 48.6826 35.7254 48.5275 35.3536 48.2448L36.4052 46.9707C36.675 47.1571 36.9853 47.2136 37.3363 47.1402C37.6861 47.0537 37.9976 46.8449 38.2709 46.5138C38.5561 46.1683 38.7111 45.8485 38.736 45.5544C38.7597 45.2472 38.6671 45.0074 38.4584 44.8351C38.2353 44.651 37.9806 44.6223 37.6944 44.7491C37.4141 44.8687 37.0191 45.1054 36.5093 45.4591C36.0185 45.8044 35.5997 46.0699 35.2528 46.2555C34.906 46.4412 34.5276 46.5404 34.1178 46.5531C33.7139 46.5585 33.3176 46.4009 32.9289 46.08C32.6122 45.8186 32.4015 45.4874 32.2968 45.0864C32.185 44.6794 32.1961 44.2407 32.3301 43.7705C32.4701 43.293 32.7272 42.8275 33.1015 42.374C33.66 41.6974 34.2813 41.2966 34.9655 41.1715C35.6484 41.0332 36.2968 41.1933 36.9108 41.6517L35.8949 42.8826C35.6107 42.6843 35.3093 42.617 34.9905 42.6807C34.6717 42.7443 34.3757 42.9417 34.1024 43.2728C33.835 43.5967 33.6912 43.8955 33.671 44.1693C33.6508 44.443 33.7414 44.6631 33.943 44.8295C34.1013 44.9602 34.282 45.0125 34.4851 44.9864C34.6881 44.9604 34.8903 44.8913 35.0918 44.7792C35.286 44.6612 35.5636 44.4789 35.9245 44.2322C36.3962 43.8954 36.806 43.6407 37.1542 43.4682C37.5011 43.2825 37.8729 43.184 38.2695 43.1726C38.6662 43.1611 39.0583 43.3093 39.4457 43.617C39.7841 43.8962 40.0091 44.2393 40.121 44.6463C40.2328 45.0533 40.2218 45.4919 40.0877 45.9622C39.9596 46.4252 39.7055 46.8871 39.3252 47.3478Z" fill="#101720"/>
<path d="M44.1395 36.4267C44.3394 36.6359 44.5065 36.8377 44.6407 37.0322L40.3794 41.1042C40.8387 41.5173 41.3458 41.7169 41.9006 41.7031C42.4555 41.6893 42.9488 41.4761 43.3807 41.0634C44.0015 40.4702 44.1918 39.7913 43.9517 39.0267L45.1967 37.837C45.5181 38.511 45.6141 39.2262 45.4847 39.9824C45.3556 40.7254 44.9637 41.4096 44.3092 42.0351C43.7761 42.5445 43.1842 42.8842 42.5334 43.0543C41.8829 43.2111 41.2298 43.1897 40.5742 42.99C39.9189 42.777 39.3172 42.3838 38.7691 41.8102C38.2211 41.2367 37.8554 40.6243 37.6721 39.9732C37.4892 39.3089 37.4941 38.6588 37.6867 38.0229C37.8862 37.3805 38.2592 36.7981 38.8058 36.2758C39.3321 35.7729 39.9107 35.4394 40.5415 35.2755C41.1724 35.1116 41.8024 35.1292 42.4316 35.3284C43.0544 35.5208 43.6237 35.8869 44.1395 36.4267ZM42.5868 37.2133C42.1739 36.7946 41.6964 36.5989 41.1545 36.6262C40.6126 36.6535 40.1223 36.8767 39.6837 37.2959C39.2855 37.6763 39.0673 38.1301 39.0289 38.6574C38.9841 39.1779 39.141 39.6798 39.4997 40.1633L42.5868 37.2133Z" fill="#101720"/>
<path d="M53.4799 34.8254C52.8691 35.2216 52.2282 35.4426 51.5571 35.4885C50.8809 35.5266 50.2394 35.3865 49.6324 35.0682C49.0204 34.7421 48.4985 34.2462 48.0668 33.5806C47.6402 32.9229 47.4067 32.2455 47.3663 31.5486C47.3259 30.8517 47.4673 30.2037 47.7907 29.6046C48.1141 29.0055 48.5851 28.5053 49.2037 28.1041C49.8223 27.7028 50.471 27.4767 51.15 27.4257C51.8289 27.3747 52.4783 27.5098 53.0981 27.8308C53.718 28.1519 54.2412 28.6413 54.6678 29.299C55.0945 29.9568 55.3241 30.6367 55.3567 31.3386C55.3892 32.0406 55.2386 32.7002 54.9046 33.3173C54.5734 33.9215 54.0985 34.4242 53.4799 34.8254ZM52.7256 33.6626C53.0702 33.4391 53.3379 33.1487 53.5288 32.7912C53.7275 32.4287 53.8142 32.0221 53.7888 31.5713C53.7634 31.1205 53.5984 30.6602 53.2936 30.1904C52.9889 29.7206 52.6423 29.3836 52.254 29.1793C51.8606 28.9673 51.4618 28.8755 51.0576 28.9041C50.6533 28.9326 50.279 29.0587 49.9344 29.2821C49.5899 29.5056 49.3222 29.7961 49.1313 30.1535C48.9482 30.5059 48.8772 30.9024 48.9183 31.343C48.9542 31.7758 49.1246 32.2271 49.4293 32.6969C49.8813 33.3938 50.408 33.8198 51.0092 33.9749C51.6132 34.1172 52.1853 34.0131 52.7256 33.6626Z" fill="#101720"/>
<path d="M58.9274 27.1285C58.6267 26.3943 58.5099 25.6908 58.5771 25.0177C58.6494 24.3325 58.8871 23.7308 59.2901 23.2127C59.6931 22.6946 60.2357 22.2958 60.918 22.0163C61.7817 21.6625 62.5791 21.5778 63.3104 21.7624C64.0467 21.9348 64.6698 22.3604 65.1798 23.039L63.5864 23.6918C63.3118 23.3908 62.9913 23.1993 62.6249 23.1174C62.2585 23.0355 61.8594 23.0831 61.4275 23.26C60.823 23.5076 60.4278 23.9217 60.2419 24.5021C60.0612 25.0704 60.1283 25.7389 60.4432 26.5075C60.7581 27.2762 61.181 27.8039 61.712 28.0907C62.2517 28.3739 62.8238 28.3917 63.4284 28.144C64.2834 27.7937 64.6952 27.1863 64.6637 26.3217L66.2572 25.6689C66.3471 26.4793 66.1955 27.2172 65.8024 27.8825C65.4058 28.5392 64.7843 29.041 63.9379 29.3877C63.2556 29.6672 62.5891 29.7637 61.9384 29.6773C61.2842 29.5822 60.6927 29.3202 60.164 28.8913C59.6404 28.4502 59.2282 27.8626 58.9274 27.1285Z" fill="#101720"/>
<path d="M72.9879 18.3667L74.9656 25.8229L73.423 26.2321L73.1897 25.3525C73.0274 25.7238 72.7718 26.0524 72.4227 26.3381C72.0803 26.6124 71.688 26.8082 71.246 26.9254C70.6596 27.0809 70.0995 27.0991 69.5658 26.98C69.0411 26.8584 68.58 26.5945 68.1826 26.1882C67.7941 25.7794 67.5102 25.2367 67.3307 24.5601L66.1678 20.1757L67.6969 19.7702L68.7988 23.9245C68.9759 24.5921 69.2792 25.062 69.7087 25.3344C70.1358 25.5977 70.638 25.6527 71.2154 25.4996C71.7928 25.3464 72.2017 25.0497 72.4421 24.6093C72.6892 24.1575 72.7243 23.5978 72.5472 22.9303L71.4453 18.7759L72.9879 18.3667Z" fill="#101720"/>
<path d="M76.8483 18.9097C77.019 18.4867 77.2771 18.1399 77.6226 17.8693C77.9758 17.5881 78.4153 17.4069 78.941 17.3257L79.1932 18.9584L78.7919 19.0203C78.1739 19.1158 77.7277 19.3452 77.4533 19.7087C77.1882 20.0708 77.1154 20.6392 77.2351 21.414L77.8548 25.4264L76.2775 25.6701L75.1 18.0465L76.6773 17.8028L76.8483 18.9097Z" fill="#101720"/>
<path d="M82.3432 18.2919C82.5474 17.8839 82.8325 17.559 83.1986 17.3171C83.5732 17.0651 84.0259 16.9198 84.5564 16.8811L84.6766 18.5288L84.2717 18.5583C83.648 18.6038 83.1848 18.7966 82.8821 19.1369C82.5887 19.4765 82.4705 20.0372 82.5275 20.8191L82.8228 24.8684L81.2311 24.9845L80.67 17.2909L82.2617 17.1748L82.3432 18.2919Z" fill="#101720"/>
<path d="M87.7185 16.9909L87.7684 24.7047L86.1724 24.7151L86.1225 17.0012L87.7185 16.9909ZM88.3491 14.9148L85.265 16.4608L85.2574 15.2848L88.3403 13.5568L88.3491 14.9148Z" fill="#101720"/>
<path d="M89.3021 20.7819C89.368 19.9913 89.5839 19.3116 89.9497 18.7426C90.3257 18.1652 90.8109 17.7374 91.4054 17.4591C91.9999 17.1809 92.6645 17.0724 93.3993 17.1336C94.3294 17.2112 95.0782 17.4984 95.6455 17.9952C96.2229 18.4835 96.5845 19.1458 96.7302 19.9822L95.0142 19.8391C94.9064 19.4462 94.708 19.1299 94.4189 18.8904C94.1298 18.6509 93.7527 18.5118 93.2877 18.473C92.6366 18.4187 92.0964 18.6078 91.6669 19.0403C91.2476 19.4643 91.0034 20.0902 90.9344 20.918C90.8654 21.7458 91.0022 22.4081 91.3448 22.9049C91.6967 23.4025 92.1982 23.6785 92.8492 23.7328C93.77 23.8095 94.413 23.4557 94.7781 22.6713L96.4941 22.8144C96.2058 23.577 95.7353 24.1653 95.0826 24.5792C94.4308 24.9838 93.6491 25.1481 92.7376 25.0721C92.0028 25.0109 91.3653 24.7938 90.8251 24.421C90.2856 24.0389 89.8779 23.5366 89.602 22.9142C89.3362 22.2833 89.2362 21.5725 89.3021 20.7819Z" fill="#101720"/>
<path d="M105.904 19.377L104.282 26.9186L102.722 26.5831L102.913 25.6934C102.6 25.9507 102.223 26.1274 101.782 26.2236C101.353 26.3126 100.914 26.309 100.467 26.2129C99.8742 26.0853 99.3669 25.8474 98.9454 25.499C98.533 25.1525 98.2419 24.7081 98.0722 24.1656C97.9115 23.6251 97.9048 23.0126 98.0519 22.3283L99.0055 17.8937L100.552 18.2262L99.6486 22.4282C99.5034 23.1034 99.5604 23.6598 99.8195 24.0974C100.081 24.5259 100.503 24.8029 101.087 24.9285C101.671 25.054 102.17 24.9752 102.584 24.6919C103.01 24.4015 103.295 23.9187 103.44 23.2434L104.344 19.0415L105.904 19.377Z" fill="#101720"/>
<path d="M110.172 17.992L107.067 27.8756L105.544 27.3971L108.65 17.5136L110.172 17.992Z" fill="#101720"/>
<path d="M111.765 29.7825C111.094 29.5001 110.55 29.0944 110.135 28.5652C109.723 28.0275 109.479 27.4182 109.401 26.7373C109.326 26.0478 109.443 25.3374 109.75 24.6062C110.055 23.8835 110.483 23.3096 111.037 22.8844C111.591 22.4591 112.206 22.2118 112.883 22.1423C113.561 22.0729 114.239 22.1812 114.919 22.4672C115.598 22.7531 116.15 23.1625 116.574 23.6953C116.998 24.228 117.251 24.841 117.334 25.5341C117.417 26.2272 117.307 26.9351 117.003 27.6577C116.699 28.3803 116.265 28.9525 115.703 29.3741C115.141 29.7957 114.511 30.0419 113.813 30.1127C113.127 30.1785 112.444 30.0684 111.765 29.7825ZM112.302 28.505C112.681 28.6642 113.071 28.7223 113.474 28.6792C113.886 28.6397 114.271 28.4828 114.629 28.2083C114.988 27.9339 115.276 27.5386 115.493 27.0224C115.71 26.5063 115.794 26.0302 115.744 25.5942C115.699 25.1496 115.55 24.7682 115.299 24.45C115.048 24.1318 114.734 23.8931 114.355 23.7338C113.977 23.5745 113.586 23.5165 113.183 23.5596C112.789 23.6063 112.421 23.7705 112.08 24.0522C111.742 24.3252 111.465 24.7199 111.247 25.236C110.925 26.0017 110.869 26.6767 111.079 27.2611C111.301 27.8406 111.709 28.2552 112.302 28.505Z" fill="#101720"/>
<path d="M121.188 29.9648C121.628 29.3041 122.145 28.8128 122.739 28.491C123.347 28.1665 123.979 28.0258 124.634 28.0689C125.289 28.112 125.923 28.3376 126.537 28.7457C127.315 29.2623 127.832 29.8751 128.089 30.584C128.359 31.2903 128.357 32.0449 128.081 32.8477L126.647 31.8946C126.742 31.4984 126.721 31.1257 126.583 30.7764C126.445 30.4271 126.182 30.1233 125.793 29.865C125.249 29.5034 124.685 29.4084 124.1 29.5801C123.528 29.7492 123.012 30.1796 122.553 30.8715C122.093 31.5633 121.893 32.2094 121.954 32.8099C122.022 33.4155 122.328 33.8991 122.872 34.2608C123.641 34.7722 124.375 34.7725 125.074 34.2615L126.508 35.2147C125.887 35.7436 125.191 36.032 124.42 36.0797C123.654 36.1196 122.89 35.8864 122.128 35.3801C121.514 34.972 121.06 34.4743 120.767 33.8871C120.479 33.2922 120.364 32.6555 120.422 31.9772C120.494 31.2963 120.749 30.6255 121.188 29.9648Z" fill="#101720"/>
<path d="M128.42 40.2027C127.87 39.7252 127.481 39.1703 127.251 38.5381C127.028 37.8988 126.985 37.2435 127.124 36.5722C127.268 35.8939 127.6 35.2553 128.121 34.6565C128.635 34.0647 129.221 33.6531 129.88 33.4217C130.538 33.1903 131.2 33.1472 131.865 33.2924C132.531 33.4377 133.141 33.7521 133.698 34.2358C134.255 34.7194 134.651 35.2804 134.888 35.9188C135.124 36.5572 135.174 37.2186 135.037 37.903C134.899 38.5875 134.574 39.2256 134.059 39.8174C133.545 40.4091 132.955 40.8177 132.29 41.043C131.624 41.2682 130.948 41.3057 130.263 41.1552C129.591 41.0039 128.977 40.6864 128.42 40.2027ZM129.329 39.1566C129.639 39.4259 129.992 39.603 130.388 39.6876C130.792 39.7785 131.207 39.7494 131.633 39.6004C132.059 39.4515 132.456 39.1656 132.823 38.7429C133.19 38.3202 133.419 37.8941 133.507 37.4644C133.603 37.0277 133.581 36.6191 133.441 36.2385C133.302 35.8579 133.078 35.5329 132.768 35.2636C132.458 34.9942 132.105 34.8172 131.708 34.7325C131.319 34.6539 130.918 34.6952 130.506 34.8564C130.1 35.0106 129.714 35.299 129.346 35.7217C128.801 36.3487 128.538 36.9726 128.555 37.5933C128.585 38.213 128.843 38.7341 129.329 39.1566Z" fill="#101720"/>
<path d="M144.204 45.5248C144.588 45.9944 144.833 46.4932 144.939 47.0212C145.051 47.5564 145.002 48.0854 144.79 48.6081C144.584 49.138 144.211 49.6245 143.669 50.0676L140.146 52.9481L139.145 51.7234L142.483 48.9937C143.018 48.5564 143.316 48.0889 143.38 47.5912C143.45 47.0875 143.296 46.6045 142.918 46.1421C142.54 45.6797 142.094 45.4294 141.58 45.3912C141.08 45.3543 140.563 45.5545 140.028 45.9917L136.69 48.7215L135.688 47.4968L139.026 44.7671C139.561 44.3298 139.86 43.8623 139.923 43.3646C139.993 42.8609 139.84 42.3779 139.461 41.9155C139.083 41.4531 138.637 41.2028 138.124 41.1646C137.624 41.1277 137.106 41.3279 136.571 41.7651L133.233 44.4949L132.223 43.2594L138.195 38.376L139.205 39.6114L138.522 40.1698C138.933 40.1712 139.334 40.2711 139.726 40.4695C140.117 40.6679 140.458 40.9441 140.747 41.2982C141.137 41.775 141.384 42.284 141.489 42.8251C141.594 43.3663 141.538 43.8946 141.321 44.41C141.83 44.2952 142.345 44.3436 142.868 44.5552C143.398 44.7609 143.843 45.0841 144.204 45.5248Z" fill="#101720"/>
<path d="M146.81 51.8381C147.252 51.9002 147.693 52.0751 148.133 52.3628C148.573 52.6506 148.938 53.0507 149.226 53.5632C149.555 54.1489 149.709 54.7641 149.686 55.4088C149.676 56.057 149.488 56.6659 149.123 57.2353C148.758 57.8047 148.238 58.2793 147.563 58.6591C146.887 59.0389 146.204 59.2415 145.511 59.2669C144.827 59.2877 144.197 59.1387 143.621 58.8199C143.059 58.5047 142.612 58.0542 142.283 57.4685C141.995 56.956 141.84 56.4433 141.819 55.9303C141.807 55.4127 141.884 54.9409 142.051 54.5149L137.878 56.8621L137.096 55.4711L147.016 49.8911L147.798 51.2822L146.81 51.8381ZM146.766 57.2436C147.23 56.9828 147.574 56.661 147.798 56.2782C148.034 55.8989 148.148 55.5026 148.141 55.0892C148.146 54.6794 148.048 54.2956 147.846 53.9377C147.65 53.5879 147.373 53.3047 147.015 53.0881C146.662 52.8796 146.26 52.7739 145.809 52.7708C145.362 52.7759 144.906 52.9088 144.443 53.1696C143.979 53.4304 143.625 53.7528 143.38 54.1366C143.149 54.524 143.03 54.9226 143.025 55.3324C143.024 55.7503 143.123 56.1342 143.319 56.484C143.521 56.8419 143.798 57.1251 144.151 57.3336C144.516 57.5456 144.926 57.6468 145.381 57.6371C145.841 57.6356 146.303 57.5044 146.766 57.2436Z" fill="#101720"/>
<path d="M154.533 58.7247L145.056 62.9101L144.411 61.4502L153.888 57.2647L154.533 58.7247Z" fill="#101720"/>
<path d="M151.864 69.8967C151.59 69.989 151.337 70.0546 151.104 70.0936L149.224 64.5071C148.656 64.7478 148.26 65.1222 148.037 65.6305C147.814 66.1387 147.797 66.6759 147.988 67.2421C148.262 68.056 148.796 68.5164 149.59 68.6235L150.139 70.2556C149.392 70.2606 148.704 70.044 148.074 69.606C147.456 69.1738 147.003 68.5287 146.714 67.6706C146.479 66.9717 146.422 66.2915 146.545 65.6301C146.679 64.9745 146.975 64.3922 147.434 63.8833C147.905 63.3803 148.516 63.0023 149.268 62.7494C150.02 62.4965 150.73 62.4252 151.397 62.5356C152.076 62.6518 152.663 62.932 153.157 63.3764C153.654 63.8296 154.023 64.4144 154.264 65.131C154.496 65.821 154.553 66.4864 154.434 67.1272C154.314 67.768 154.031 68.331 153.584 68.8163C153.145 69.2985 152.572 69.6587 151.864 69.8967ZM151.811 68.157C152.365 67.9607 152.745 67.6114 152.95 67.1091C153.156 66.6068 153.162 66.0681 152.968 65.4931C152.793 64.9712 152.474 64.581 152.013 64.3225C151.561 64.061 151.04 63.9901 150.45 64.1098L151.811 68.157Z" fill="#101720"/>
<path d="M154.841 72.6037L150.675 73.5399C150.393 73.6033 150.202 73.7131 150.104 73.8692C150.016 74.0324 150.008 74.2734 150.08 74.5921L150.294 75.5483L148.997 75.8399L148.72 74.6105C148.563 73.9093 148.606 73.3352 148.85 72.8882C149.094 72.4412 149.585 72.1348 150.322 71.969L154.488 71.0329L154.289 70.145L155.559 69.8595L155.759 70.7474L157.63 70.3269L157.983 71.8977L156.112 72.3182L156.523 74.1486L155.253 74.434L154.841 72.6037Z" fill="#101720"/>
<path d="M149.485 80.2264C149.401 79.5033 149.487 78.8309 149.744 78.2092C150.01 77.5864 150.42 77.0737 150.975 76.6712C151.539 76.2676 152.215 76.0201 153.003 75.9288C153.782 75.8386 154.493 75.93 155.135 76.2032C155.777 76.4764 156.295 76.8909 156.688 77.4467C157.082 78.0024 157.321 78.6465 157.406 79.379C157.49 80.1114 157.405 80.7931 157.149 81.4241C156.894 82.055 156.484 82.5769 155.921 82.9898C155.359 83.4027 154.688 83.6543 153.909 83.7445C153.13 83.8348 152.419 83.7386 151.776 83.4562C151.132 83.1737 150.608 82.7459 150.203 82.1726C149.809 81.6076 149.569 80.9589 149.485 80.2264ZM150.861 80.0669C150.909 80.4748 151.05 80.8437 151.286 81.1734C151.522 81.5124 151.848 81.7706 152.263 81.948C152.678 82.1254 153.164 82.1819 153.72 82.1174C154.277 82.0529 154.732 81.8921 155.088 81.6348C155.453 81.3764 155.712 81.0598 155.866 80.6849C156.02 80.31 156.073 79.9186 156.026 79.5107C155.978 79.1028 155.837 78.7339 155.601 78.4042C155.367 78.0837 155.043 77.844 154.63 77.6852C154.226 77.5253 153.746 77.4776 153.19 77.542C152.365 77.6376 151.749 77.9204 151.343 78.3902C150.948 78.8683 150.787 79.4272 150.861 80.0669Z" fill="#101720"/>
<path d="M149.874 89.4765C149.884 89.1873 149.99 88.948 150.192 88.7585C150.394 88.569 150.64 88.4789 150.929 88.4883C151.218 88.4978 151.458 88.6036 151.647 88.8059C151.837 89.0082 151.927 89.2539 151.917 89.5431C151.908 89.823 151.802 90.0576 151.6 90.2471C151.398 90.4366 151.152 90.5267 150.863 90.5173C150.574 90.5078 150.334 90.402 150.145 90.1997C149.955 89.9974 149.865 89.7563 149.874 89.4765Z" fill="#101720"/>
<path d="M153.493 95.6496C154.255 95.7913 154.9 96.0727 155.43 96.494C155.957 96.9244 156.331 97.4401 156.552 98.0412C156.779 98.6532 156.832 99.2896 156.709 99.9502C156.598 100.547 156.382 101.043 156.062 101.439C155.749 101.846 155.393 102.15 154.995 102.351L156.096 102.556L155.802 104.139L148.218 102.728L148.512 101.145L149.641 101.355C149.333 101.023 149.102 100.605 148.949 100.101C148.795 99.5983 148.773 99.0531 148.883 98.4658C149.004 97.8143 149.28 97.2486 149.711 96.7687C150.151 96.2905 150.699 95.9463 151.356 95.7361C152.019 95.5367 152.732 95.5079 153.493 95.6496ZM152.311 101.852C152.834 101.949 153.309 101.924 153.735 101.775C154.16 101.636 154.506 101.411 154.772 101.099C155.039 100.788 155.21 100.431 155.285 100.027C155.36 99.6234 155.329 99.2284 155.192 98.8421C155.064 98.4576 154.828 98.1194 154.484 97.8275C154.147 97.5464 153.717 97.3573 153.194 97.26C152.671 97.1627 152.192 97.1828 151.759 97.3205C151.323 97.4673 150.967 97.6954 150.691 98.0049C150.423 98.3252 150.252 98.6826 150.179 99.0772C150.104 99.4809 150.134 99.8759 150.271 100.262C150.408 100.648 150.65 100.983 150.996 101.266C151.35 101.559 151.788 101.755 152.311 101.852Z" fill="#101720"/>
<path d="M151.671 104.692C152.425 104.938 153.037 105.305 153.506 105.792C153.982 106.291 154.286 106.861 154.42 107.504C154.554 108.147 154.506 108.818 154.278 109.519C153.988 110.406 153.536 111.069 152.922 111.507C152.313 111.956 151.586 112.155 150.738 112.104L151.273 110.467C151.68 110.453 152.033 110.333 152.333 110.107C152.633 109.881 152.855 109.546 153 109.102C153.203 108.481 153.143 107.912 152.821 107.394C152.505 106.888 151.952 106.507 151.163 106.249C150.373 105.991 149.697 105.972 149.135 106.19C148.569 106.418 148.185 106.843 147.983 107.464C147.696 108.342 147.892 109.049 148.571 109.585L148.037 111.222C147.361 110.766 146.897 110.172 146.644 109.442C146.401 108.715 146.421 107.916 146.705 107.047C146.934 106.346 147.292 105.775 147.779 105.335C148.275 104.899 148.858 104.618 149.527 104.492C150.202 104.379 150.917 104.446 151.671 104.692Z" fill="#101720"/>
<path d="M145.899 119.58C145.638 119.455 145.41 119.326 145.215 119.192L147.745 113.869C147.169 113.647 146.624 113.641 146.11 113.852C145.597 114.062 145.212 114.437 144.956 114.977C144.587 115.752 144.651 116.455 145.148 117.083L144.409 118.639C143.868 118.123 143.524 117.49 143.375 116.737C143.231 115.997 143.353 115.218 143.742 114.4C144.058 113.734 144.49 113.206 145.038 112.815C145.59 112.436 146.207 112.224 146.891 112.177C147.579 112.142 148.282 112.295 148.998 112.635C149.715 112.976 150.275 113.418 150.678 113.961C151.086 114.516 151.313 115.125 151.359 115.788C151.402 116.46 151.261 117.137 150.937 117.819C150.624 118.477 150.202 118.995 149.671 119.373C149.14 119.751 148.545 119.959 147.887 119.997C147.236 120.039 146.574 119.9 145.899 119.58ZM147.07 118.291C147.605 118.535 148.121 118.548 148.617 118.329C149.114 118.11 149.492 117.727 149.753 117.179C149.989 116.682 150.031 116.18 149.879 115.674C149.736 115.172 149.41 114.758 148.903 114.435L147.07 118.291Z" fill="#101720"/>
<path d="M140.103 120.943C140.426 120.43 140.808 120.025 141.249 119.729C141.692 119.446 142.146 119.286 142.612 119.248C143.085 119.215 143.524 119.315 143.928 119.549L143.047 120.946C142.756 120.795 142.441 120.779 142.102 120.896C141.766 121.026 141.484 121.273 141.255 121.636C141.016 122.015 140.903 122.352 140.915 122.647C140.931 122.955 141.053 123.181 141.282 123.325C141.527 123.48 141.783 123.476 142.051 123.313C142.314 123.159 142.675 122.874 143.136 122.459C143.579 122.054 143.961 121.737 144.281 121.509C144.602 121.281 144.964 121.134 145.369 121.069C145.769 121.013 146.182 121.119 146.608 121.388C146.956 121.607 147.207 121.908 147.362 122.293C147.524 122.682 147.569 123.119 147.496 123.602C147.418 124.094 147.222 124.588 146.908 125.085C146.44 125.827 145.875 126.304 145.212 126.515C144.553 126.739 143.889 126.663 143.222 126.286L144.073 124.936C144.38 125.097 144.688 125.125 144.996 125.021C145.304 124.918 145.572 124.684 145.801 124.321C146.025 123.966 146.13 123.651 146.115 123.377C146.101 123.103 145.983 122.896 145.762 122.757C145.588 122.647 145.402 122.618 145.204 122.67C145.006 122.722 144.814 122.816 144.629 122.953C144.451 123.094 144.199 123.311 143.872 123.601C143.447 123.995 143.073 124.3 142.749 124.515C142.429 124.744 142.073 124.889 141.681 124.95C141.289 125.012 140.881 124.915 140.458 124.659C140.087 124.425 139.82 124.113 139.657 123.724C139.494 123.334 139.45 122.898 139.523 122.414C139.591 121.939 139.784 121.448 140.103 120.943Z" fill="#101720"/>
<path d="M136.139 126.466C136.516 125.991 136.94 125.63 137.41 125.384C137.882 125.151 138.351 125.041 138.817 125.054C139.291 125.073 139.716 125.22 140.093 125.496L139.065 126.789C138.792 126.608 138.481 126.557 138.131 126.637C137.783 126.729 137.475 126.944 137.208 127.28C136.93 127.631 136.78 127.953 136.761 128.248C136.743 128.555 136.84 128.793 137.052 128.962C137.278 129.142 137.533 129.166 137.817 129.034C138.095 128.909 138.486 128.665 138.989 128.302C139.473 127.948 139.887 127.675 140.231 127.483C140.574 127.291 140.95 127.185 141.36 127.165C141.764 127.152 142.163 127.302 142.557 127.616C142.879 127.871 143.096 128.198 143.208 128.598C143.327 129.002 143.324 129.441 143.198 129.914C143.067 130.394 142.819 130.864 142.453 131.324C141.907 132.011 141.293 132.423 140.611 132.561C139.931 132.712 139.28 132.563 138.657 132.116L139.651 130.867C139.938 131.06 140.241 131.122 140.559 131.052C140.876 130.983 141.168 130.78 141.436 130.444C141.697 130.115 141.835 129.814 141.85 129.54C141.866 129.266 141.771 129.047 141.566 128.885C141.406 128.757 141.224 128.708 141.022 128.738C140.819 128.767 140.618 128.84 140.419 128.956C140.227 129.077 139.953 129.265 139.596 129.518C139.131 129.864 138.726 130.126 138.381 130.305C138.037 130.497 137.667 130.602 137.271 130.621C136.875 130.639 136.48 130.499 136.087 130.198C135.743 129.925 135.512 129.586 135.393 129.181C135.274 128.776 135.277 128.338 135.402 127.865C135.521 127.4 135.767 126.933 136.139 126.466Z" fill="#101720"/>
<path d="M131.528 137.471C131.325 137.265 131.154 137.066 131.016 136.874L135.202 132.725C134.735 132.32 134.225 132.13 133.67 132.154C133.116 132.178 132.626 132.4 132.202 132.821C131.592 133.425 131.414 134.108 131.668 134.868L130.445 136.08C130.112 135.412 130.003 134.699 130.118 133.94C130.234 133.195 130.613 132.504 131.256 131.866C131.78 131.347 132.365 130.997 133.013 130.815C133.66 130.646 134.314 130.655 134.973 130.843C135.632 131.044 136.241 131.426 136.799 131.989C137.358 132.553 137.734 133.158 137.93 133.806C138.125 134.467 138.132 135.117 137.951 135.756C137.763 136.402 137.401 136.991 136.864 137.524C136.347 138.036 135.775 138.38 135.147 138.556C134.519 138.731 133.889 138.725 133.256 138.537C132.63 138.356 132.054 138.001 131.528 137.471ZM133.066 136.656C133.487 137.067 133.968 137.254 134.509 137.216C135.051 137.179 135.537 136.947 135.968 136.52C136.359 136.132 136.569 135.674 136.597 135.147C136.632 134.625 136.466 134.126 136.099 133.65L133.066 136.656Z" fill="#101720"/>
<path d="M122.219 139.243C122.823 138.836 123.46 138.603 124.13 138.545C124.805 138.494 125.449 138.623 126.062 138.93C126.68 139.245 127.21 139.731 127.654 140.389C128.093 141.038 128.339 141.711 128.392 142.407C128.445 143.103 128.315 143.754 128.003 144.359C127.691 144.964 127.229 145.473 126.618 145.885C126.007 146.298 125.362 146.536 124.684 146.599C124.006 146.662 123.355 146.539 122.729 146.23C122.103 145.92 121.571 145.44 121.133 144.79C120.694 144.141 120.452 143.465 120.407 142.764C120.361 142.062 120.5 141.4 120.822 140.777C121.143 140.167 121.608 139.656 122.219 139.243ZM122.995 140.392C122.654 140.622 122.392 140.917 122.208 141.278C122.016 141.644 121.936 142.052 121.97 142.502C122.004 142.953 122.177 143.41 122.49 143.874C122.804 144.338 123.156 144.669 123.548 144.866C123.946 145.071 124.346 145.155 124.75 145.119C125.153 145.083 125.525 144.95 125.866 144.721C126.206 144.491 126.468 144.196 126.653 143.835C126.829 143.479 126.893 143.081 126.844 142.641C126.8 142.209 126.621 141.761 126.308 141.297C125.843 140.609 125.309 140.192 124.705 140.048C124.099 139.917 123.529 140.032 122.995 140.392Z" fill="#101720"/>
<path d="M116.912 147.039C117.226 147.768 117.356 148.469 117.301 149.143C117.241 149.829 117.015 150.435 116.621 150.961C116.228 151.486 115.693 151.895 115.016 152.187C114.159 152.557 113.363 152.656 112.628 152.485C111.889 152.326 111.258 151.912 110.736 151.243L112.317 150.561C112.597 150.857 112.921 151.042 113.289 151.117C113.657 151.193 114.055 151.138 114.483 150.953C115.083 150.694 115.471 150.273 115.646 149.689C115.816 149.118 115.737 148.451 115.408 147.688C115.079 146.925 114.646 146.405 114.11 146.128C113.565 145.855 112.993 145.848 112.393 146.107C111.545 146.472 111.144 147.087 111.191 147.951L109.61 148.633C109.505 147.825 109.643 147.084 110.024 146.412C110.409 145.748 111.021 145.235 111.861 144.872C112.538 144.58 113.202 144.472 113.854 144.546C114.51 144.629 115.106 144.88 115.643 145.299C116.175 145.731 116.598 146.311 116.912 147.039Z" fill="#101720"/>
<path d="M103.017 156.058L100.902 148.64L102.436 148.202L102.686 149.077C102.841 148.703 103.091 148.37 103.435 148.078C103.772 147.797 104.16 147.594 104.6 147.469C105.184 147.302 105.743 147.274 106.279 147.383C106.806 147.495 107.272 147.75 107.677 148.149C108.073 148.551 108.367 149.088 108.559 149.761L109.803 154.123L108.281 154.557L107.103 150.424C106.913 149.76 106.601 149.295 106.167 149.031C105.735 148.776 105.232 148.73 104.657 148.894C104.083 149.058 103.679 149.362 103.447 149.807C103.209 150.263 103.184 150.823 103.373 151.487L104.552 155.621L103.017 156.058Z" fill="#101720"/>
<path d="M99.1491 155.587C98.9863 156.014 98.7347 156.365 98.3943 156.642C98.0464 156.93 97.6103 157.119 97.0862 157.21L96.8037 155.582L97.2038 155.513C97.8199 155.406 98.2617 155.168 98.5294 154.8C98.7878 154.433 98.8499 153.863 98.7159 153.091L98.0218 149.09L99.5943 148.818L100.913 156.418L99.3406 156.691L99.1491 155.587Z" fill="#101720"/>
<path d="M93.6797 156.305C93.4831 156.717 93.2041 157.047 92.8427 157.296C92.4728 157.554 92.023 157.708 91.4932 157.757L91.3422 156.112L91.7465 156.075C92.3692 156.018 92.8287 155.816 93.125 155.47C93.412 155.125 93.5197 154.562 93.448 153.782L93.0769 149.739L94.6662 149.593L95.3714 157.274L93.782 157.42L93.6797 156.305Z" fill="#101720"/>
<path d="M88.3043 157.707L88.1134 149.995L89.7089 149.956L89.8999 157.668L88.3043 157.707ZM87.7118 159.794L90.7671 158.192L90.7962 159.368L87.7454 161.152L87.7118 159.794Z" fill="#101720"/>
<path d="M86.6708 153.946C86.6194 154.738 86.4161 155.421 86.0607 155.997C85.6955 156.581 85.2182 157.018 84.6289 157.307C84.0396 157.596 83.3771 157.717 82.6413 157.669C81.7099 157.609 80.956 157.335 80.3797 156.849C79.7933 156.371 79.4197 155.716 79.2586 154.882L80.977 154.994C81.0919 155.385 81.2961 155.697 81.5896 155.931C81.8831 156.166 82.2626 156.298 82.7283 156.328C83.3803 156.37 83.917 156.171 84.3383 155.731C84.7498 155.299 84.9824 154.669 85.0362 153.84C85.09 153.011 84.941 152.351 84.5894 151.861C84.2284 151.37 83.7219 151.103 83.07 151.061C82.1479 151.001 81.5116 151.367 81.161 152.158L79.4426 152.046C79.7169 151.278 80.1765 150.682 80.8214 150.256C81.4657 149.839 82.2442 149.661 83.157 149.72C83.8928 149.768 84.5342 149.973 85.0812 150.336C85.6275 150.708 86.0444 151.202 86.3317 151.82C86.6091 152.446 86.7221 153.154 86.6708 153.946Z" fill="#101720"/>
<path d="M70.0954 155.655L71.5782 148.084L73.1445 148.391L72.9696 149.284C73.2778 149.021 73.6514 148.838 74.0903 148.733C74.5183 148.636 74.9566 148.632 75.4054 148.72C76.0008 148.837 76.5124 149.065 76.9402 149.406C77.3589 149.745 77.6581 150.184 77.8378 150.723C78.0083 151.26 78.0263 151.873 77.8918 152.559L77.0199 157.011L75.4674 156.707L76.2935 152.489C76.4263 151.811 76.3591 151.256 76.092 150.823C75.823 150.4 75.3955 150.13 74.8093 150.015C74.2231 149.901 73.7256 149.989 73.3167 150.28C72.8969 150.578 72.6206 151.066 72.4878 151.743L71.6617 155.961L70.0954 155.655Z" fill="#101720"/>
<path d="M65.833 157.112L68.7577 147.173L70.2888 147.624L67.3641 157.562L65.833 157.112Z" fill="#101720"/>
<path d="M64.0418 145.36C64.718 145.63 65.2686 146.026 65.6937 146.547C66.1153 147.077 66.3715 147.682 66.4622 148.361C66.5495 149.049 66.4461 149.761 66.1521 150.498C65.8616 151.226 65.4436 151.808 64.898 152.244C64.3524 152.679 63.7417 152.938 63.0659 153.02C62.39 153.102 61.7097 153.007 61.0248 152.733C60.34 152.46 59.7807 152.061 59.3469 151.536C58.9132 151.012 58.6484 150.403 58.5524 149.712C58.4565 149.021 58.5538 148.311 58.8443 147.583C59.1349 146.854 59.5572 146.274 60.1115 145.842C60.6657 145.41 61.2911 145.152 61.9878 145.068C62.6723 144.99 63.357 145.087 64.0418 145.36ZM63.5282 146.648C63.1468 146.496 62.7551 146.445 62.353 146.495C61.9423 146.543 61.5603 146.707 61.207 146.988C60.8536 147.269 60.5732 147.669 60.3657 148.19C60.1582 148.71 60.0832 149.187 60.1408 149.622C60.1949 150.066 60.3504 150.444 60.6071 150.758C60.8639 151.071 61.183 151.304 61.5644 151.456C61.9459 151.609 62.3376 151.659 62.7397 151.609C63.133 151.555 63.4977 151.384 63.8337 151.096C64.1662 150.816 64.4362 150.417 64.6438 149.896C64.9516 149.125 64.9952 148.449 64.7746 147.869C64.5418 147.293 64.1264 146.886 63.5282 146.648Z" fill="#101720"/>
<path d="M54.6145 145.352C54.1878 146.021 53.68 146.522 53.0911 146.855C52.4894 147.19 51.8607 147.343 51.205 147.312C50.5494 147.281 49.9107 147.067 49.2892 146.67C48.5024 146.168 47.9738 145.565 47.7034 144.861C47.4201 144.16 47.4089 143.406 47.6698 142.598L49.1214 143.524C49.0336 143.922 49.0617 144.294 49.2059 144.641C49.35 144.988 49.6188 145.286 50.0122 145.538C50.5629 145.889 51.1291 145.973 51.7106 145.791C52.2792 145.611 52.7869 145.171 53.2338 144.471C53.6806 143.771 53.8683 143.121 53.7967 142.522C53.7173 141.918 53.4023 141.44 52.8515 141.088C52.0726 140.591 51.3389 140.605 50.6503 141.128L49.1987 140.202C49.8093 139.662 50.4997 139.361 51.27 139.298C52.0353 139.244 52.8035 139.463 53.5745 139.955C54.1961 140.352 54.659 140.841 54.9632 141.423C55.2624 142.012 55.389 142.647 55.343 143.326C55.2841 144.008 55.0413 144.684 54.6145 145.352Z" fill="#101720"/>
<path d="M47.1889 135.245C47.747 135.712 48.1467 136.26 48.3878 136.888C48.6229 137.523 48.6775 138.178 48.5517 138.851C48.4198 139.532 48.0992 140.177 47.5899 140.785C47.0866 141.386 46.5078 141.808 45.8536 142.052C45.1993 142.295 44.5384 142.35 43.8707 142.217C43.203 142.084 42.5865 141.781 42.0211 141.308C41.4558 140.834 41.049 140.281 40.8007 139.647C40.5525 139.013 40.4907 138.352 40.6154 137.666C40.7401 136.979 41.0541 136.335 41.5574 135.734C42.0607 135.133 42.6431 134.713 43.3045 134.476C43.9659 134.238 44.6406 134.189 45.3286 134.326C46.0035 134.466 46.6236 134.772 47.1889 135.245ZM46.2991 136.308C45.9842 136.044 45.6279 135.874 45.2301 135.796C44.8252 135.713 44.4111 135.749 43.9877 135.906C43.5643 136.063 43.1728 136.356 42.8133 136.785C42.4538 137.215 42.2335 137.645 42.1524 138.076C42.0653 138.515 42.0948 138.923 42.2409 139.301C42.387 139.679 42.6175 139.999 42.9324 140.263C43.2473 140.527 43.6036 140.697 44.0013 140.775C44.3919 140.846 44.7918 140.797 45.2009 140.629C45.604 140.467 45.9853 140.172 46.3448 139.742C46.8781 139.105 47.1305 138.477 47.1021 137.857C47.0605 137.237 46.7928 136.721 46.2991 136.308Z" fill="#101720"/>
<path d="M31.3127 130.215C30.9201 129.752 30.6658 129.258 30.5499 128.732C30.428 128.199 30.468 127.669 30.67 127.143C30.8659 126.609 31.2307 126.116 31.7644 125.663L35.2333 122.719L36.257 123.925L32.9696 126.715C32.443 127.162 32.1527 127.635 32.0987 128.134C32.0375 128.639 32.2002 129.119 32.5868 129.574C32.9733 130.03 33.4237 130.272 33.9378 130.301C34.4388 130.328 34.9526 130.119 35.4791 129.672L38.7665 126.881L39.7903 128.087L36.5028 130.878C35.9763 131.325 35.686 131.798 35.6319 132.297C35.5708 132.801 35.7335 133.282 36.12 133.737C36.5066 134.192 36.9569 134.434 37.471 134.463C37.972 134.491 38.4858 134.281 39.0124 133.834L42.2998 131.044L43.3326 132.261L37.4515 137.253L36.4187 136.036L37.0911 135.465C36.6801 135.471 36.2771 135.379 35.8822 135.187C35.4873 134.996 35.1419 134.726 34.8459 134.378C34.4473 133.908 34.1906 133.404 34.0757 132.865C33.9609 132.325 34.0075 131.796 34.2155 131.277C33.7088 131.401 33.1921 131.362 32.6657 131.16C32.1321 130.964 31.6811 130.649 31.3127 130.215Z" fill="#101720"/>
<path d="M28.5933 123.952C28.1505 123.898 27.7063 123.732 27.2608 123.452C26.8153 123.172 26.4437 122.779 26.1461 122.272C25.806 121.692 25.6414 121.08 25.6525 120.435C25.6508 119.787 25.8272 119.174 26.1817 118.598C26.5363 118.022 27.0476 117.538 27.7157 117.146C28.3838 116.754 29.0638 116.539 29.7557 116.501C30.4395 116.467 31.0721 116.605 31.6533 116.913C32.2219 117.218 32.6762 117.66 33.0163 118.24C33.3139 118.747 33.4779 119.257 33.5081 119.769C33.5303 120.286 33.4617 120.76 33.3023 121.189L37.4316 118.765L38.2395 120.142L28.4232 125.903L27.6153 124.526L28.5933 123.952ZM28.5377 118.547C28.0789 118.816 27.7411 119.144 27.5245 119.531C27.2951 119.915 27.188 120.313 27.2032 120.726C27.2056 121.136 27.3107 121.518 27.5186 121.872C27.7218 122.218 28.004 122.496 28.3653 122.706C28.7219 122.908 29.126 123.007 29.5774 123.001C30.0241 122.988 30.4769 122.847 30.9357 122.577C31.3946 122.308 31.7427 121.979 31.9802 121.591C32.2049 121.2 32.316 120.799 32.3136 120.389C32.3064 119.971 32.2013 119.589 31.9981 119.243C31.7903 118.889 31.508 118.611 31.1514 118.409C30.782 118.204 30.37 118.11 29.9152 118.128C29.4557 118.138 28.9965 118.278 28.5377 118.547Z" fill="#101720"/>
<path d="M20.7436 117.205L30.1421 112.846L30.8136 114.294L21.4151 118.652L20.7436 117.205Z" fill="#101720"/>
<path d="M23.2073 105.992C23.4798 105.894 23.7321 105.824 23.9644 105.781L25.9466 111.331C26.511 111.08 26.9 110.699 27.1135 110.186C27.3269 109.674 27.3332 109.137 27.1324 108.574C26.8436 107.765 26.3012 107.315 25.5051 107.223L24.926 105.601C25.6725 105.582 26.3646 105.786 27.0025 106.212C27.6284 106.633 28.0936 107.269 28.3981 108.122C28.646 108.816 28.7151 109.495 28.6052 110.159C28.4834 110.817 28.1977 111.405 27.7481 111.922C27.2867 112.434 26.6824 112.823 25.9352 113.09C25.1881 113.356 24.4799 113.441 23.8107 113.343C23.1295 113.239 22.5378 112.97 22.0355 112.535C21.5301 112.091 21.1503 111.513 20.8961 110.801C20.6512 110.115 20.5825 109.451 20.6899 108.808C20.7973 108.165 21.0701 107.597 21.5083 107.104C21.9378 106.613 22.5041 106.243 23.2073 105.992ZM23.2929 107.73C22.7423 107.937 22.369 108.293 22.1731 108.799C21.9772 109.305 21.9813 109.844 22.1853 110.415C22.3705 110.934 22.696 111.318 23.1619 111.568C23.6189 111.821 24.1413 111.882 24.7289 111.751L23.2929 107.73Z" fill="#101720"/>
<path d="M20.1776 103.331L24.3258 102.318C24.6069 102.25 24.7954 102.136 24.8913 101.978C24.976 101.814 24.9796 101.572 24.9021 101.255L24.6697 100.303L25.9617 99.9876L26.2606 101.212C26.431 101.91 26.3984 102.485 26.1628 102.936C25.9271 103.387 25.4421 103.703 24.7077 103.882L20.5595 104.895L20.7753 105.779L19.5105 106.088L19.2947 105.204L17.4314 105.659L17.0495 104.095L18.9128 103.64L18.4678 101.817L19.7327 101.508L20.1776 103.331Z" fill="#101720"/>
<path d="M25.3942 95.6235C25.4914 96.3449 25.4175 97.0188 25.1723 97.6452C24.9179 98.2729 24.5172 98.7931 23.9701 99.2059C23.4138 99.6199 22.7425 99.88 21.9563 99.986C21.1793 100.091 20.4671 100.013 19.8197 99.7513C19.1724 99.4902 18.6469 99.0854 18.2434 98.5371C17.8398 97.9888 17.5888 97.3492 17.4902 96.6185C17.3917 95.8878 17.4644 95.2046 17.7083 94.569C17.9522 93.9334 18.3517 93.4039 18.9068 92.9806C19.4619 92.5573 20.1279 92.2933 20.9049 92.1885C21.6819 92.0838 22.3947 92.1666 23.0433 92.437C23.6919 92.7074 24.2239 93.1254 24.6392 93.691C25.044 94.2486 25.2956 94.8927 25.3942 95.6235ZM24.0206 95.8087C23.9657 95.4017 23.8175 95.0355 23.5758 94.7102C23.3329 94.3757 23.0023 94.1236 22.5839 93.954C22.1655 93.7844 21.6788 93.737 21.1238 93.8118C20.5688 93.8867 20.116 94.056 19.7655 94.3199C19.4057 94.585 19.1524 94.9064 19.0055 95.2841C18.8587 95.6618 18.8127 96.0541 18.8676 96.4611C18.9224 96.8681 19.0707 97.2342 19.3123 97.5595C19.5527 97.8755 19.8809 98.1091 20.2968 98.2602C20.7034 98.4126 21.1843 98.4514 21.7393 98.3765C22.5625 98.2655 23.1726 97.9714 23.5697 97.494C23.9564 97.0087 24.1066 96.4469 24.0206 95.8087Z" fill="#101720"/>
<path d="M24.8345 86.3747C24.8304 86.664 24.7289 86.9052 24.5301 87.0984C24.3314 87.2916 24.0873 87.3861 23.798 87.382C23.5087 87.3779 23.2675 87.2764 23.0743 87.0776C22.8811 86.8789 22.7866 86.6348 22.7907 86.3455C22.7947 86.0656 22.8961 85.829 23.0948 85.6358C23.2936 85.4426 23.5376 85.3481 23.827 85.3522C24.1163 85.3563 24.3575 85.4578 24.5507 85.6565C24.7439 85.8553 24.8385 86.0947 24.8345 86.3747Z" fill="#101720"/>
<path d="M94.6542 88.5928H76.6143C76.1569 88.5928 75.7735 88.4412 75.4641 88.1378C75.1547 87.8344 75 87.4585 75 87.01C75 86.5616 75.1547 86.1857 75.4641 85.8823C75.7735 85.5789 76.1569 85.4272 76.6143 85.4272H94.6542L86.7441 77.6715C86.4212 77.355 86.2665 76.9856 86.28 76.5636C86.2934 76.1415 86.4616 75.7722 86.7845 75.4556C87.1073 75.1654 87.484 75.0137 87.9145 75.0005C88.345 74.9874 88.7216 75.139 89.0445 75.4556L99.6989 85.9021C99.8604 86.0604 99.9747 86.2318 100.042 86.4165C100.109 86.6012 100.143 86.799 100.143 87.01C100.143 87.2211 100.109 87.4189 100.042 87.6036C99.9747 87.7883 99.8604 87.9597 99.6989 88.118L89.0445 98.5645C88.7485 98.8547 88.3786 98.9998 87.9346 98.9998C87.4907 98.9998 87.1073 98.8547 86.7845 98.5645C86.4616 98.2479 86.3002 97.872 86.3002 97.4367C86.3002 97.0015 86.4616 96.6256 86.7845 96.309L94.6542 88.5928Z" fill="#FAF9F6"/>
</svg>
