<svg width="65" height="76" viewBox="0 0 65 76" fill="none" xmlns="http://www.w3.org/2000/svg">
<g id="logo iesb">
<g id="iesb">
<path id="Vector" fill-rule="evenodd" clip-rule="evenodd" d="M64.9454 0.398438L64.9237 75.0434H0.0432199L0.0214844 50.5891L64.9454 0.398438Z" fill="#101720"/>
<path id="Vector_2" fill-rule="evenodd" clip-rule="evenodd" d="M65 0L0.086942 25.0144L0 0.012445L65 0Z" fill="#101720"/>
<path id="Vector_3" fill-rule="evenodd" clip-rule="evenodd" d="M59.153 61.6402C59.3051 61.8642 59.5333 61.802 59.7181 61.8642C61.6743 62.5113 62.9567 64.3656 62.8915 66.4688C62.8045 69.157 61.533 70.8619 59.229 71.3846C58.2292 71.6086 57.2185 71.6709 56.2078 71.6709L45.8291 71.6833V51.9331C49.4263 51.958 53.5561 51.9456 57.1533 51.9704C58.1749 51.9704 59.1747 52.1447 60.1202 52.6051C61.7286 53.3892 62.5763 54.783 62.598 56.7991C62.6198 58.8027 61.8916 60.3086 60.2615 61.1673C59.892 61.354 59.5225 61.4784 59.153 61.6402ZM52.0455 55.6915C52.9149 55.7288 54.0342 55.5919 54.8819 55.8657C55.7405 56.1395 56.0883 56.6746 56.0665 57.6578C56.0556 58.5041 55.6318 59.0765 54.8493 59.3254C54.0016 59.5868 52.9366 59.4499 52.0781 59.4872L52.0455 55.6915ZM52.0346 63.5692C52.7953 63.6065 53.8604 63.5069 54.6102 63.6563C55.6644 63.8554 56.2295 64.4652 56.273 65.4981C56.3056 66.4688 55.784 67.1907 54.7841 67.4769C53.969 67.7133 52.8931 67.6387 52.0672 67.6511L52.0346 63.5692Z" fill="#FAF9F6"/>
<path id="Vector_4" fill-rule="evenodd" clip-rule="evenodd" d="M12.0526 61.7769L12.0309 51.9702C16.6823 51.9827 22.3226 51.9827 26.974 51.9702L26.9849 56.7366C24.507 56.7242 20.9424 56.7366 18.4646 56.7118V59.4745C20.7794 59.4496 24.2353 59.487 26.561 59.4497L26.5719 64.2161C24.2571 64.1912 20.7685 64.2161 18.4537 64.1912L18.4646 66.9042C20.9424 66.8793 24.6592 66.9166 27.137 66.8793L27.1153 71.6333C22.4096 71.6208 16.7475 71.6208 12.0417 71.6333C11.9331 71.6333 12.0526 62.872 12.0526 61.7769Z" fill="#FAF9F6"/>
<path id="Vector_5" fill-rule="evenodd" clip-rule="evenodd" d="M42.819 57.4459C41.0258 56.7614 39.2544 56.4378 37.4286 56.4751C36.8635 56.4876 36.3092 56.5374 35.7767 56.7614C35.3855 56.9232 35.0594 57.1845 35.0486 57.7196C35.0377 58.2797 35.3637 58.5161 35.755 58.6904C36.7874 59.1384 37.885 59.3002 38.9609 59.5615C40.352 59.91 41.667 60.4078 42.7212 61.59C44.4166 63.4692 44.6013 68.3974 41.3736 70.4135C40.0586 71.2349 38.6458 71.6082 37.1786 71.7451C34.44 72.0065 31.3318 71.4589 28.6475 70.7993L28.6583 65.896C29.8103 66.4062 30.9406 66.7796 32.1251 66.9538C33.3858 67.1529 34.6465 67.2774 35.9071 67.0161C36.1679 66.9663 36.4396 66.8792 36.6787 66.7547C37.0374 66.5805 37.3743 66.3565 37.3743 65.8338C37.3743 65.3111 37.07 65.0746 36.7113 64.8755C36.1136 64.5644 35.4833 64.415 34.8421 64.2782C33.7227 64.0293 32.6142 63.743 31.56 63.2452C29.756 62.4114 28.7127 60.9056 28.5496 58.653C28.3758 56.1516 29.1691 54.2351 31.1579 53.0652C32.9294 52.0198 34.8529 51.8456 36.7983 51.7958C38.6675 51.7461 40.9824 52.3559 42.819 52.7168V57.4459Z" fill="#FAF9F6"/>
<path id="Vector_6" fill-rule="evenodd" clip-rule="evenodd" d="M9.74796 61.9512C9.74796 64.9753 9.7371 68.6341 9.75883 71.6582H3.16211L3.17298 52.0947C5.03136 52.1196 7.88958 52.1196 9.74796 52.0947V61.9512Z" fill="#FAF9F6"/>
<path id="Vector_7" fill-rule="evenodd" clip-rule="evenodd" d="M52.0352 63.5693C52.7959 63.6067 53.8609 63.5071 54.6108 63.6565C55.665 63.8556 56.2301 64.4654 56.2736 65.4983C56.3062 66.469 55.7845 67.1908 54.7847 67.4771C53.9696 67.7135 52.8937 67.6388 52.0678 67.6513L52.0352 63.5693Z" fill="#101720"/>
<path id="Vector_8" fill-rule="evenodd" clip-rule="evenodd" d="M52.0459 55.6911C52.9153 55.7285 54.0347 55.5916 54.8824 55.8653C55.7409 56.1391 56.0887 56.6743 56.067 57.6574C56.0561 58.5037 55.6323 59.0762 54.8498 59.3251C54.0021 59.5864 52.9371 59.4495 52.0785 59.4868L52.0459 55.6911Z" fill="#101720"/>
</g>
</g>
</svg>
