<svg width="44" height="20" viewBox="0 0 44 20" fill="none" xmlns="http://www.w3.org/2000/svg">
<path fill-rule="evenodd" clip-rule="evenodd" d="M2.04762 18.8571C1.92063 19.619 2.42857 20 3.57143 20C4.68254 20 5.55556 19.619 6.19048 18.8571C6.85714 18.0952 7.19048 17.127 7.19048 15.9524V14.8095C7.63492 13.3175 8.20635 11.8413 8.90476 10.381C9.60317 8.92064 10.4444 7.71429 11.4286 6.7619C12.4127 5.77778 13.5556 5.28571 14.8571 5.28571C16.381 5.28571 17.1429 6.01587 17.1429 7.47619C17.1429 7.88889 17.0794 8.36508 16.9524 8.90476C16.8571 9.4127 16.746 9.93651 16.619 10.4762C16.4286 11.1746 16.2381 11.9365 16.0476 12.7619C15.8889 13.5556 15.8095 14.3492 15.8095 15.1429C15.8095 16.5397 16.1587 17.6984 16.8571 18.619C17.5556 19.5079 18.5397 19.9524 19.8095 19.9524C20.7338 19.9524 21.4481 19.7563 21.9524 19.3643C22.4566 19.7563 23.1709 19.9524 24.0952 19.9524C25.3651 19.9524 26.3492 19.5079 27.0476 18.619C27.746 17.6984 28.0952 16.5397 28.0952 15.1429C28.0952 14.3492 28.0159 13.5556 27.8571 12.7619C27.6667 11.9365 27.4762 11.1746 27.2857 10.4762C27.1587 9.93651 27.0476 9.4127 26.9524 8.90476C26.8254 8.36508 26.7619 7.88889 26.7619 7.47619C26.7619 6.01587 27.5238 5.28571 29.0476 5.28571C30.3492 5.28571 31.4921 5.77778 32.4762 6.7619C33.4603 7.71429 34.3016 8.92064 35 10.381C35.6984 11.8413 36.2698 13.3175 36.7143 14.8095V15.9524C36.7143 17.127 37.0476 18.0952 37.7143 18.8571C38.3492 19.619 39.2222 20 40.3333 20C41.4762 20 41.9841 19.619 41.8571 18.8571C41.5079 17.4921 41.2222 16.1111 41 14.7143C40.746 13.2857 40.619 11.9206 40.619 10.619C40.619 8.93651 40.7302 7.71429 40.9524 6.95238C41.1429 6.15873 41.4127 5.61905 41.7619 5.33333C42.1111 5.01587 42.5397 4.77778 43.0476 4.61905C43.2698 4.52381 43.4762 4.39683 43.6667 4.2381C43.8254 4.07937 43.9048 3.85714 43.9048 3.57143C43.9048 3.12698 43.7302 2.63492 43.3809 2.09524C43.0317 1.55556 42.5397 1.09524 41.9048 0.714285C41.2381 0.301587 40.4921 0.0952386 39.6667 0.0952386C38.5873 0.0952386 37.8413 0.476191 37.4286 1.2381C37.0159 1.96825 36.8095 2.93651 36.8095 4.14286C36.8095 4.93651 36.8889 5.8254 37.0476 6.80952C37.2063 7.79365 37.3651 8.68254 37.5238 9.47619L37.381 9.52381C36.746 7.84127 35.9841 6.28571 35.0952 4.85714C34.1746 3.39683 33.1111 2.22222 31.9048 1.33333C30.6984 0.444445 29.3016 0 27.7143 0C26.0317 0 24.746 0.507937 23.8571 1.52381C22.9683 2.53968 22.5238 3.80952 22.5238 5.33333C22.5238 5.96825 22.6032 6.57143 22.7619 7.14286C22.8889 7.71429 23.0317 8.26984 23.1905 8.80952C23.3492 9.31746 23.4921 9.84127 23.619 10.381C23.7143 10.9206 23.7619 11.4603 23.7619 12C23.7619 13.518 23.1587 14.6226 21.9524 15.314C20.746 14.6226 20.1429 13.518 20.1429 12C20.1429 11.4603 20.1905 10.9206 20.2857 10.381C20.4127 9.84127 20.5556 9.31746 20.7143 8.80952C20.873 8.26984 21.0159 7.71429 21.1429 7.14286C21.3016 6.57143 21.381 5.96825 21.381 5.33333C21.381 3.80952 20.9365 2.53968 20.0476 1.52381C19.1587 0.507937 17.873 0 16.1905 0C14.6032 0 13.2063 0.444445 12 1.33333C10.7937 2.22222 9.73016 3.39683 8.80952 4.85714C7.92064 6.28571 7.15873 7.84127 6.52381 9.52381L6.38095 9.47619C6.53968 8.68254 6.69841 7.79365 6.85714 6.80952C7.01587 5.8254 7.09524 4.93651 7.09524 4.14286C7.09524 2.93651 6.88889 1.96825 6.47619 1.2381C6.06349 0.476191 5.31746 0.0952386 4.2381 0.0952386C3.4127 0.0952386 2.66667 0.301587 2 0.714285C1.36508 1.09524 0.873016 1.55556 0.52381 2.09524C0.174603 2.63492 0 3.12698 0 3.57143C0 3.85714 0.0793651 4.07937 0.238095 4.2381C0.428571 4.39683 0.634921 4.52381 0.857143 4.61905C1.36508 4.77778 1.79365 5.01587 2.14286 5.33333C2.49206 5.61905 2.7619 6.15873 2.95238 6.95238C3.1746 7.71429 3.28571 8.93651 3.28571 10.619C3.28571 11.9206 3.15873 13.2857 2.90476 14.7143C2.68254 16.1111 2.39683 17.4921 2.04762 18.8571Z" fill="#FFFFFF"/>
</svg>
