<svg width="61" height="60" viewBox="0 0 61 60" fill="none" xmlns="http://www.w3.org/2000/svg">
<g id="smile">
<rect id="Rectangle 2910" x="40.2178" y="2.51636" width="7.75751" height="9.69689" rx="3.87876" transform="rotate(-15 40.2178 2.51636)" fill="white"/>
<rect id="Rectangle 2911" x="0.615234" y="13.1279" width="7.75751" height="9.69689" rx="3.87876" transform="rotate(-15 0.615234 13.1279)" fill="white"/>
<path id="Ellipse 10" d="M51.776 31.9757C52.8399 32.0366 53.6611 32.9503 53.5124 34.0055C52.9197 38.209 51.186 42.1837 48.4832 45.4888C45.3719 49.2933 41.1361 52.0152 36.3828 53.2643C31.6295 54.5134 26.6028 54.2257 22.023 52.4423C18.0445 50.8931 14.5807 48.2841 11.998 44.9151C11.3497 44.0694 11.6156 42.8699 12.5121 42.2939C13.4086 41.7178 14.5951 41.9848 15.2572 42.8196C17.3894 45.5081 20.2044 47.5931 23.4233 48.8465C27.2436 50.3342 31.4369 50.5742 35.402 49.5322C39.3671 48.4902 42.9006 46.2196 45.496 43.046C47.6828 40.372 49.1091 37.1725 49.6441 33.7831C49.8102 32.7305 50.7122 31.9148 51.776 31.9757Z" fill="white"/>
</g>
</svg>
