<svg width="82" height="62" viewBox="0 0 82 62" fill="none" xmlns="http://www.w3.org/2000/svg">
<g id="Frame 4">
<g id="Group 923">
<path id="Vector" d="M3.28418 54.8692V51.8145H81.2883V54.8692H3.28418Z" fill="#101720"/>
<path id="Vector_2" d="M3.28418 61.6748V58.6201H81.2883V61.6748H3.28418Z" fill="#101720"/>
<path id="Vector_3" d="M6.68177 3.0528V13.567H3.71221V3.0528H0V0H10.394V3.0528H6.68177Z" fill="#101720"/>
<path id="Vector_4" d="M22.4992 8.39434H14.7039V13.567H11.7344V0H14.7039V5.17269H22.4992V0H25.4687V13.567H22.4992V8.39434Z" fill="#101720"/>
<path id="Vector_5" d="M27.3008 13.567V0H35.7497V3.0528H30.2703V5.34211H34.7103V8.22493H30.2703V10.5142H35.7497V13.567H27.3008Z" fill="#101720"/>
<path id="Vector_6" d="M6.66558 22.1468H6.22058V30.8297H3.25098V17.2627H6.72585L13.6449 25.7423H14.0899V17.2627H17.0605V30.8297H13.7043L6.66558 22.1468Z" fill="#101720"/>
<path id="Vector_7" d="M18.8926 30.8297V17.2627H27.3414V20.3155H21.8621V22.6048H26.3021V25.4876H21.8621V27.7769H27.3414V30.8297H18.8926Z" fill="#101720"/>
<path id="Vector_8" d="M28.0723 17.2627H31.384L33.9521 28.0655H34.6502L36.9968 17.2627H42.5789L45.2667 28.0655H45.9648L48.1917 17.2627H51.5627L48.2807 30.8297H42.9952L40.263 20.0269H39.4314L36.9375 30.8297H31.651L28.0723 17.2627Z" fill="#101720"/>
<path id="Vector_9" d="M2.58203 38.6642C2.58203 35.7977 4.58646 34.2544 7.17037 34.2544C8.58435 34.2385 9.98219 34.5985 11.2534 35.3059L10.6888 38.1892C9.57393 37.5102 8.32997 37.1549 7.06654 37.1547C6.14591 37.1547 5.52193 37.5618 5.52193 38.274C5.52193 40.4786 11.6104 39.2407 11.6104 43.8024C11.6104 46.2278 10.0954 48.3641 6.93304 48.3641C5.52373 48.4111 4.1217 48.1164 2.81936 47.4995L2.93802 44.3959C4.21025 45.1029 5.60718 45.4684 7.02202 45.4643C8.32832 45.4643 8.65464 44.9385 8.65464 44.3111C8.65466 42.276 2.58203 43.463 2.58203 38.6642Z" fill="#101720"/>
<path id="Vector_10" d="M21.918 47.9068C20.9242 48.2874 19.8748 48.4428 18.8288 48.3642C18.0054 48.3671 17.1898 48.1817 16.43 47.819C15.6703 47.4564 14.9817 46.9237 14.405 46.2525C13.8282 45.5813 13.3748 44.7851 13.0715 43.9107C12.7683 43.0364 12.6213 42.1015 12.6392 41.1613C12.657 40.221 12.8394 39.2944 13.1757 38.4359C13.5119 37.5774 13.9951 36.8044 14.5968 36.1624C15.1986 35.5204 15.9067 35.0224 16.6796 34.6978C17.4524 34.3732 18.2743 34.2284 19.0968 34.272C20.1132 34.2207 21.1303 34.3522 22.1109 34.6617L21.8291 37.7484C20.9775 37.4254 20.0827 37.2761 19.1858 37.3073C18.7162 37.255 18.2423 37.3221 17.7981 37.5039C17.3539 37.6856 16.9505 37.9775 16.6169 38.3585C16.2832 38.7396 16.0276 39.2003 15.8684 39.7075C15.7092 40.2148 15.6504 40.7561 15.6961 41.2924C15.6666 41.8312 15.7393 42.3708 15.9092 42.8745C16.0792 43.3782 16.3423 43.834 16.6807 44.2108C17.0191 44.5876 17.4247 44.8766 17.8699 45.0579C18.315 45.2391 18.7892 45.3085 19.26 45.2612C20.1661 45.3051 21.0705 45.1377 21.9181 44.7693L21.918 47.9068Z" fill="#101720"/>
<path id="Vector_11" d="M34.5138 42.9207H26.7186V48.0934H23.748V34.5264H26.7186V39.6991H34.5138V34.5264H37.4834V48.0934H34.5138V42.9207Z" fill="#101720"/>
<path id="Vector_12" d="M45.759 34.2544C49.842 34.2544 52.7829 36.6629 52.7829 41.2415C52.7829 46.007 49.6047 48.3641 45.7442 48.3641C41.854 48.3641 38.6768 45.9731 38.6768 41.2584C38.6768 36.8153 41.5722 34.2544 45.759 34.2544ZM45.7145 45.5152C48.0463 45.5152 49.7234 44.1588 49.7234 41.1737C49.7234 38.4603 48.0463 37.1039 45.7294 37.1039C43.4135 37.1039 41.7354 38.4265 41.7354 41.2754C41.7353 44.1418 43.4134 45.5152 45.7145 45.5152Z" fill="#101720"/>
<path id="Vector_13" d="M60.8498 34.2544C64.9338 34.2544 67.8738 36.6629 67.8738 41.2415C67.8738 46.007 64.6955 48.3641 60.835 48.3641C56.9448 48.3641 53.7676 45.9731 53.7676 41.2584C53.7676 36.8153 56.6629 34.2544 60.8498 34.2544ZM60.8053 45.5152C63.1371 45.5152 64.8152 44.1588 64.8152 41.1737C64.8152 38.4603 63.1371 37.1039 60.8202 37.1039C58.5043 37.1039 56.8262 38.4265 56.8262 41.2754C56.8261 44.1418 58.5042 45.5152 60.8053 45.5152Z" fill="#101720"/>
<path id="Vector_14" d="M69.1553 34.5264H72.1249V44.8712H81.3164V48.0934H69.1553V34.5264Z" fill="#101720"/>
</g>
</g>
</svg>
