<svg width="94" height="81" viewBox="0 0 94 81" fill="none" xmlns="http://www.w3.org/2000/svg">
<path d="M14.7174 80.6479C10.1459 80.6479 8.11418 79.1241 8.62212 76.0765C10.0189 70.6162 11.1618 65.0924 12.0507 59.5051C13.0666 53.7908 13.5745 48.3305 13.5745 43.1241C13.5745 36.394 13.1301 31.5051 12.2412 28.4575C11.4793 25.2829 10.3999 23.1241 9.00307 21.9813C7.60624 20.7114 5.89196 19.7591 3.86021 19.1241C2.97132 18.7432 2.14593 18.2352 1.38402 17.6003C0.749101 16.9654 0.431641 16.0765 0.431641 14.9337C0.431641 13.1559 1.13005 11.1876 2.52688 9.02891C3.9237 6.87017 5.89196 5.0289 8.43164 3.50509C11.0983 1.8543 14.0824 1.02891 17.384 1.02891C21.7015 1.02891 24.6856 2.55272 26.3364 5.60033C27.9872 8.52097 28.8126 12.394 28.8126 17.2194C28.8126 20.394 28.4951 23.9495 27.8602 27.886C27.2253 31.8226 26.5904 35.3781 25.9554 38.5527L26.5269 38.7432C29.0666 32.013 32.1142 25.7908 35.6697 20.0765C39.3523 14.2352 43.6062 9.53684 48.4316 5.98128C53.257 2.42573 58.8443 0.647949 65.1935 0.647949C71.9237 0.647949 77.0666 2.67971 80.6221 6.7432C84.1777 10.8067 85.9554 15.886 85.9554 21.9813C85.9554 24.521 85.638 26.9337 85.0031 29.2194C84.4951 31.5051 83.9237 33.7273 83.2888 35.8861C82.6539 37.9178 82.0824 40.013 81.5745 42.1718C81.1935 44.3305 81.0031 46.4892 81.0031 48.648C81.0031 55.886 84.4316 60.7749 91.2888 63.3146C93.0666 64.0765 93.9554 65.2194 93.9554 66.7432C93.9554 67.8861 93.5745 69.5368 92.8126 71.6956C92.0507 73.8543 90.6539 75.886 88.6221 77.7908C86.5904 79.5686 83.6062 80.4575 79.6697 80.4575C74.5904 80.4575 70.6539 78.6797 67.8602 75.1241C65.0666 71.4416 63.6697 66.8067 63.6697 61.2194C63.6697 58.0448 63.9872 54.8702 64.6221 51.6956C65.384 48.394 66.1459 45.3464 66.9078 42.5527C67.4158 40.394 67.8602 38.2987 68.2412 36.267C68.7491 34.1083 69.0031 32.2035 69.0031 30.5527C69.0031 24.7115 65.9554 21.7908 59.8602 21.7908C54.6539 21.7908 50.0824 23.7591 46.1459 27.6956C42.2094 31.5051 38.8443 36.3305 36.0507 42.1718C33.257 48.013 30.9713 53.9178 29.1935 59.8861V64.4575C29.1935 69.1559 27.8602 73.0289 25.1935 76.0765C22.6539 79.1241 19.1618 80.6479 14.7174 80.6479Z" fill="#FFFFFF"/>
</svg>