<svg width="95" height="81" viewBox="0 0 95 81" fill="none" xmlns="http://www.w3.org/2000/svg">
<path d="M80.5966 80.4073C85.1913 80.4073 87.2334 78.8758 86.7229 75.8126C85.319 70.3245 84.1703 64.7726 83.2769 59.1568C82.2558 53.4134 81.7453 47.9253 81.7453 42.6925C81.7453 35.928 82.192 31.0143 83.0854 27.9511C83.8512 24.7604 84.9361 22.5906 86.34 21.442C87.7439 20.1656 89.467 19.2084 91.5091 18.5703C92.4025 18.1874 93.2321 17.6768 93.9978 17.0387C94.636 16.4005 94.9551 15.5071 94.9551 14.3585C94.9551 12.5716 94.2531 10.5934 92.8492 8.42363C91.4452 6.25391 89.467 4.40326 86.9143 2.87169C84.2341 1.21249 81.2348 0.382899 77.9164 0.382899C73.5769 0.382899 70.5776 1.91447 68.9184 4.9776C67.2592 7.91311 66.4296 11.8058 66.4296 16.6558C66.4296 19.8466 66.7487 23.4202 67.3869 27.3768C68.025 31.3333 68.6632 34.907 69.3013 38.0978L68.727 38.2892C66.1744 31.5248 63.1112 25.2709 59.5376 19.5275C55.8363 13.6565 51.5606 8.93415 46.7107 5.36049C41.8607 1.78683 36.245 0 29.8634 0C23.099 0 17.93 2.0421 14.3563 6.12629C10.7826 10.2105 8.99582 15.3157 8.99582 21.442C8.99582 23.9946 9.31489 26.4196 9.95304 28.7169C10.4636 31.0143 11.0379 33.2478 11.6761 35.4175C12.3142 37.4596 12.8885 39.5655 13.3991 41.7352C13.782 43.905 13.9734 46.0747 13.9734 48.2444C13.9734 55.5194 10.5274 60.4331 3.63532 62.9858C1.84849 63.7515 0.955078 64.9002 0.955078 66.4318C0.955078 67.5805 1.33797 69.2397 2.10376 71.4094C2.86954 73.5791 4.27348 75.6212 6.31557 77.5356C8.35767 79.3225 11.357 80.2159 15.3135 80.2159C20.4188 80.2159 24.3753 78.4291 27.1832 74.8554C29.9911 71.1541 31.395 66.4956 31.395 60.8798C31.395 57.6891 31.0759 54.4983 30.4378 51.3075C29.672 47.9891 28.9062 44.926 28.1404 42.1181C27.6299 39.9484 27.1832 37.8425 26.8003 35.8004C26.2898 33.6307 26.0345 31.7162 26.0345 30.057C26.0345 24.186 29.0976 21.2505 35.2239 21.2505C40.4568 21.2505 45.0515 23.2288 49.008 27.1853C52.9646 31.0143 56.3468 35.8642 59.1547 41.7352C61.9625 47.6063 64.2599 53.5411 66.0467 59.5397V64.1344C66.0467 68.8568 67.3869 72.7495 70.0671 75.8126C72.6197 78.8758 76.1296 80.4073 80.5966 80.4073Z" fill="white"/>
</svg>
